<?xml version="1.0" encoding="UTF-8"?>
<svg version="1.1" xmlns="http://www.w3.org/2000/svg" width="744" height="1255">
<path d="M0 0 C8.80678933 -0.0879107 17.47605393 0.38933953 26.23828125 1.18554688 C28.41316389 1.38122036 30.58899902 1.56039781 32.76538086 1.73852539 C40.66681729 2.41811207 48.27054711 3.52389842 56.01513672 5.30371094 C61.42976917 6.545861 66.89134413 7.53763024 72.34936523 8.56860352 C89.79370879 11.90641959 106.3921242 15.82847041 123.12280273 21.91235352 C125.81040407 22.87546489 128.50289166 23.77070637 131.22436523 24.63110352 C134.84468333 25.8132482 138.12114623 27.38926676 141.48999023 29.15454102 C144.02296459 30.39974269 146.66327978 31.21691788 149.34936523 32.06860352 C149.67936523 32.39860352 150.00936523 32.72860352 150.34936523 33.06860352 C151.52499023 33.41922852 152.70061523 33.76985352 153.91186523 34.13110352 C161.43319606 36.58656176 168.34700202 40.43442355 175.34936523 44.06860352 C175.97649414 44.38990234 176.60362305 44.71120117 177.24975586 45.04223633 C186.51748369 49.79453766 195.40916409 55.0592143 204.25561523 60.55297852 C206.82940174 62.15058411 209.42143078 63.68969602 212.06420898 65.17016602 C215.00611546 66.87024514 217.69013995 68.66632795 220.41186523 70.69360352 C223.4629244 72.95380151 226.51655219 75.19833175 229.64233398 77.35375977 C236.85790533 82.35208368 243.56549938 87.69985306 250.14282227 93.51464844 C253.90173041 96.83586188 257.72275246 99.94163171 261.79077148 102.88110352 C264.2019626 104.71820151 266.2363208 106.90137845 268.34936523 109.06860352 C269.4679009 110.01380678 270.59342723 110.95077536 271.72436523 111.88110352 C275.07399384 114.70644243 277.87652566 117.83500849 280.70483398 121.17407227 C282.16638981 122.85781235 283.6757979 124.40514766 285.28686523 125.94360352 C287.34936523 128.06860352 287.34936523 128.06860352 287.34936523 130.06860352 C288.00936523 130.06860352 288.66936523 130.06860352 289.34936523 130.06860352 C290.67957613 131.58087418 291.93964114 133.15529376 293.16186523 134.75610352 C295.26338773 137.4998708 297.32933412 140.04863681 299.77905273 142.49047852 C302.65687013 145.37704308 305.15883954 148.42096302 307.66186523 151.63110352 C308.14260498 152.2446167 308.62334473 152.85812988 309.11865234 153.49023438 C312.77038865 158.20323183 316.08588135 163.08259372 319.32592773 168.08813477 C321.11814009 170.72801512 323.01546778 173.22729715 325.0078125 175.71801758 C334.33555138 187.39059939 340.7963816 200.67666457 347.34790039 214.0378418 C348.38260297 216.1360027 349.43203297 218.22619437 350.48608398 220.31469727 C350.83985107 221.0165918 351.19361816 221.71848633 351.55810547 222.44165039 C352.22435291 223.76258552 352.89172615 225.08295381 353.56054688 226.40258789 C357.74928227 234.73824835 361.2122582 243.17622433 364.22436523 252.00610352 C364.56878662 253.00810791 364.91320801 254.0101123 365.26806641 255.04248047 C366.29947322 258.04973495 367.32450368 261.05911346 368.34936523 264.06860352 C368.9313566 265.76132556 369.51338512 267.45403483 370.09545898 269.14672852 C372.90565585 277.37451257 375.50869128 285.56059946 377.34936523 294.06860352 C377.49051758 294.71829102 377.63166992 295.36797852 377.77709961 296.03735352 C378.84885214 301.02982099 379.83226126 306.03600451 380.77709961 311.05395508 C381.17031293 313.12537062 381.57319176 315.19496747 381.98413086 317.26293945 C387.67041455 346.12208721 389.72968259 375.95160157 387.53930664 405.31518555 C387.3446067 408.13758387 387.22312628 410.95664391 387.11108398 413.78344727 C385.76489391 441.78465643 380.45103665 471.09340192 371.21704102 497.56665039 C370.28671457 500.24925742 369.40628872 502.94505426 368.53295898 505.64672852 C359.01323171 534.96574881 346.95258008 565.54517433 328.34936523 590.36157227 C324.82394627 595.13328191 321.61171701 600.11512935 318.34936523 605.06860352 C316.91360389 607.23642271 315.47613905 609.40311476 314.03686523 611.56860352 C313.40135742 612.52766602 312.76584961 613.48672852 312.11108398 614.47485352 C308.81401258 619.32907838 308.81401258 619.32907838 307.34936523 621.06860352 C306.68936523 621.06860352 306.02936523 621.06860352 305.34936523 621.06860352 C305.05545898 622.10114258 305.05545898 622.10114258 304.75561523 623.15454102 C302.83434359 627.13584281 300.02709314 629.67441735 296.84936523 632.69360352 C295.67010926 633.82937283 294.4929416 634.96731537 293.31811523 636.10766602 C292.79668945 636.60476074 292.27526367 637.10185547 291.73803711 637.61401367 C290.1203295 639.22437662 290.1203295 639.22437662 288.34936523 642.06860352 C287.68936523 642.06860352 287.02936523 642.06860352 286.34936523 642.06860352 C286.12249023 642.60485352 285.89561523 643.14110352 285.66186523 643.69360352 C282.72018392 649.0166459 278.65255781 652.80415226 274.03295898 656.63891602 C272.59703725 657.85828342 271.2439178 659.17405095 269.91186523 660.50610352 C267.71250903 662.70545972 265.47784049 664.8067228 263.16186523 666.88110352 C262.48768555 667.48567383 261.81350586 668.09024414 261.11889648 668.71313477 C259.34936523 670.06860352 259.34936523 670.06860352 257.34936523 670.06860352 C257.34936523 670.72860352 257.34936523 671.38860352 257.34936523 672.06860352 C255.83764648 673.44360352 255.83764648 673.44360352 253.66186523 675.06860352 C252.84073242 675.68735352 252.01959961 676.30610352 251.17358398 676.94360352 C250.2415918 677.64485352 249.30959961 678.34610352 248.34936523 679.06860352 C246.77382839 680.30525131 245.1983133 681.54192722 243.62353516 682.77954102 C228.33168209 694.7323144 228.33168209 694.7323144 219.34936523 698.06860352 C219.34936523 698.72860352 219.34936523 699.38860352 219.34936523 700.06860352 C218.51276367 700.47079102 217.67616211 700.87297852 216.81420898 701.28735352 C213.76114623 702.85691001 210.8703145 704.54001695 207.9465332 706.32910156 C197.64163278 712.60675688 186.89615613 717.77043271 175.9597168 722.8449707 C173.6970907 723.90560314 171.4534986 724.99422873 169.21655273 726.10766602 C161.83748412 729.74987984 154.47645385 732.42967247 146.60839844 734.80029297 C141.05750913 736.48334357 135.67201118 738.41583809 130.28686523 740.56860352 C113.64707445 747.16567861 96.82711862 752.18316104 79.34936523 756.06860352 C78.6652356 756.22155884 77.98110596 756.37451416 77.27624512 756.53210449 C35.50071239 765.81790407 -8.30773371 771.44225308 -51.15063477 771.13110352 C-52.3662207 771.1265918 -53.58180664 771.12208008 -54.83422852 771.11743164 C-57.77308702 771.10586133 -60.71183094 771.08956733 -63.65063477 771.06860352 C-60.93458762 773.94280474 -60.93458762 773.94280474 -57.65063477 776.06860352 C-57.65063477 776.72860352 -57.65063477 777.38860352 -57.65063477 778.06860352 C-56.99063477 778.29547852 -56.33063477 778.52235352 -55.65063477 778.75610352 C-51.76404849 780.45648501 -48.01383659 782.46483436 -44.65063477 785.06860352 C-44.65063477 785.72860352 -44.65063477 786.38860352 -44.65063477 787.06860352 C-43.93649414 787.31352539 -43.22235352 787.55844727 -42.48657227 787.81079102 C-34.79976801 791.22008987 -28.39898178 797.86221822 -23.18579102 804.34204102 C-21.66092614 806.17946833 -21.66092614 806.17946833 -19.45922852 807.67016602 C-18.86239258 808.13165039 -18.26555664 808.59313477 -17.65063477 809.06860352 C-17.65063477 809.72860352 -17.65063477 810.38860352 -17.65063477 811.06860352 C-16.99063477 811.06860352 -16.33063477 811.06860352 -15.65063477 811.06860352 C-15.65063477 811.72860352 -15.65063477 812.38860352 -15.65063477 813.06860352 C-14.99063477 813.06860352 -14.33063477 813.06860352 -13.65063477 813.06860352 C-7.87740699 819.90340718 -2.70082275 828.29931206 -0.65063477 837.06860352 C-0.4018457 837.76856445 -0.15305664 838.46852539 0.10327148 839.18969727 C4.10069531 850.6412544 3.47108312 863.35242591 -1.74047852 874.37329102 C-2.64535832 875.97695701 -3.63731791 877.53115724 -4.65063477 879.06860352 C-5.31063477 879.06860352 -5.97063477 879.06860352 -6.65063477 879.06860352 C-6.90200195 879.66672852 -7.15336914 880.26485352 -7.41235352 880.88110352 C-11.3829726 887.89544638 -20.39419969 890.23433406 -27.63500977 892.30688477 C-53.95634758 898.95540921 -84.50166773 892.99580637 -110.45043945 887.02514648 C-115.16847905 885.94377011 -119.89795947 884.91607768 -124.62719727 883.88500977 C-141.49977541 880.19044141 -158.21464029 876.43007765 -174.65063477 871.06860352 C-175.72829102 870.76438477 -176.80594727 870.46016602 -177.91625977 870.14672852 C-191.41034823 866.25094565 -204.80420278 861.75351882 -217.65063477 856.06860352 C-218.79532227 855.60969727 -219.94000977 855.15079102 -221.11938477 854.67797852 C-228.52252022 851.67243207 -235.65082309 848.46712688 -241.65063477 843.06860352 C-242.14563477 841.58360352 -242.14563477 841.58360352 -242.65063477 840.06860352 C-243.31063477 840.06860352 -243.97063477 840.06860352 -244.65063477 840.06860352 C-246.93022953 834.83894494 -247.00233089 830.52436252 -245.65063477 825.06860352 C-243.36684606 820.74571775 -240.8304692 817.63350192 -236.65063477 815.06860352 C-228.37689344 813.0668919 -223.09817318 816.26747862 -215.85595703 820.02416992 C-210.14168983 822.98189952 -204.65797504 825.66393334 -198.40844727 827.29516602 C-194.5691667 828.37190476 -190.84106028 829.72518778 -187.08813477 831.06860352 C-182.0383827 832.86970543 -176.98862086 834.64936224 -171.8894043 836.30664062 C-169.45532142 837.13507821 -167.06467483 838.05461179 -164.66235352 838.97094727 C-158.64881908 841.16167746 -152.58249834 842.63618592 -146.33813477 844.00610352 C-144.02430432 844.52420604 -141.71050266 845.04243712 -139.39672852 845.56079102 C-138.25445801 845.81441406 -137.1121875 846.06803711 -135.93530273 846.3293457 C-132.99151173 846.99188466 -130.05655812 847.68149679 -127.12329102 848.38891602 C-106.77828476 853.26073557 -85.63223095 857.79336562 -64.65063477 858.06860352 C-63.38437256 858.08914795 -63.38437256 858.08914795 -62.0925293 858.11010742 C-53.19319998 858.23976239 -44.47350077 858.35527147 -35.65063477 857.06860352 C-34.73724055 851.01736685 -35.84607945 848.228728 -39.46313477 843.25610352 C-41.35094507 840.8181117 -43.19309659 838.50990974 -45.41235352 836.36938477 C-46.65063477 835.06860352 -46.65063477 835.06860352 -46.65063477 833.06860352 C-47.16883789 832.85333008 -47.68704102 832.63805664 -48.22094727 832.41625977 C-51.65777021 830.50998338 -54.50716431 828.00890408 -57.52563477 825.50610352 C-64.58000453 819.76899684 -71.86374993 814.75050689 -79.65063477 810.06860352 C-80.74633789 809.40344727 -81.84204102 808.73829102 -82.97094727 808.05297852 C-91.07240635 803.27856875 -99.43753014 799.23337698 -107.96313477 795.27563477 C-111.42287343 793.6638381 -114.8209545 791.96719852 -118.20410156 790.20166016 C-136.68161965 780.60999315 -156.55956198 773.40082867 -175.95532227 765.90844727 C-178.86661822 764.78006509 -181.75319339 763.61566583 -184.61938477 762.37719727 C-187.55199476 761.05983496 -187.55199476 761.05983496 -190.27563477 760.19360352 C-193.43334796 758.69784463 -195.31728924 756.64756436 -197.65063477 754.06860352 C-198.48594727 753.17141602 -198.48594727 753.17141602 -199.33813477 752.25610352 C-203.08906837 746.00454751 -203.38234816 739.0173775 -201.65063477 732.06860352 C-200.2994516 729.14891401 -198.80492244 726.47120473 -196.65063477 724.06860352 C-195.99063477 724.06860352 -195.33063477 724.06860352 -194.65063477 724.06860352 C-194.65063477 723.40860352 -194.65063477 722.74860352 -194.65063477 722.06860352 C-188.78142584 718.50104515 -184.49643981 716.84627515 -177.51391602 717.11938477 C-176.48427734 717.15757324 -175.45463867 717.19576172 -174.39379883 717.23510742 C-173.26167969 717.28328613 -172.12956055 717.33146484 -170.96313477 717.38110352 C-169.74980469 717.4267041 -168.53647461 717.47230469 -167.28637695 717.51928711 C-159.80787309 717.81276145 -152.33738191 718.19080923 -144.86547852 718.61938477 C-108.58020542 720.66617434 -72.80095828 719.79987822 -36.65063477 716.06860352 C-35.97081543 715.99941711 -35.29099609 715.93023071 -34.59057617 715.85894775 C-12.33344025 713.58009438 9.4807097 709.71799618 31.34936523 705.06860352 C32.04622437 704.921026 32.7430835 704.77344849 33.46105957 704.62139893 C48.49387646 701.42636151 63.23531014 697.88106228 77.63842773 692.45141602 C81.34936523 691.06860352 81.34936523 691.06860352 83.18847656 690.61889648 C100.74220342 686.14865579 118.30508279 678.30956249 134.34936523 670.06860352 C135.54094238 669.46749756 135.54094238 669.46749756 136.7565918 668.85424805 C147.36861353 663.49381656 157.46836461 657.67327235 167.34936523 651.06860352 C174.91945869 646.06860352 174.91945869 646.06860352 178.34936523 646.06860352 C178.67936523 645.07860352 179.00936523 644.08860352 179.34936523 643.06860352 C182.00170898 641.02563477 182.00170898 641.02563477 185.28686523 638.88110352 C186.90915039 637.80795898 186.90915039 637.80795898 188.56420898 636.71313477 C191.34936523 635.06860352 191.34936523 635.06860352 193.34936523 635.06860352 C193.53499023 634.51172852 193.72061523 633.95485352 193.91186523 633.38110352 C195.69554607 630.51170392 197.77383792 629.23112197 200.54077148 627.36157227 C203.76018263 625.0600062 206.35103148 622.14088792 209.03686523 619.25610352 C210.34936523 618.06860352 210.34936523 618.06860352 212.34936523 618.06860352 C212.57624023 617.51172852 212.80311523 616.95485352 213.03686523 616.38110352 C214.7248656 613.40700764 216.8161304 611.34851487 219.34936523 609.06860352 C220.00936523 609.06860352 220.66936523 609.06860352 221.34936523 609.06860352 C221.69741211 608.24102539 221.69741211 608.24102539 222.05249023 607.39672852 C223.69757659 604.4435012 225.78099474 602.27748131 228.09936523 599.81860352 C231.77661991 595.8597094 235.12750302 591.8788048 238.19311523 587.43188477 C238.57467773 586.98200195 238.95624023 586.53211914 239.34936523 586.06860352 C240.00936523 586.06860352 240.66936523 586.06860352 241.34936523 586.06860352 C241.6187793 585.3196582 241.88819336 584.57071289 242.16577148 583.79907227 C243.30594623 581.16876816 244.43697807 579.53855139 246.28686523 577.38110352 C254.08325027 567.64377744 260.26059057 556.38232449 266.07983398 545.38110352 C267.30205259 543.15478532 268.63538706 541.06029032 270.03686523 538.94360352 C271.73563263 536.29038331 272.84864859 533.83385468 273.76342773 530.82250977 C274.95116814 527.12882134 276.38008571 523.69543529 278.05151367 520.19897461 C281.96165861 511.99309561 284.94175846 503.63210326 287.59936523 494.94360352 C287.91607178 493.90856689 288.23277832 492.87353027 288.55908203 491.80712891 C292.55074375 478.42307566 295.75537605 464.96634783 298.15966797 451.21411133 C298.53711305 449.06719395 298.9301019 446.92349783 299.32397461 444.77954102 C302.19591516 428.78776081 302.55252443 412.83643564 302.53686523 396.63110352 C302.537258 395.76395721 302.53765076 394.89681091 302.53805542 394.00338745 C304.30242864 370.58305756 304.30242864 370.58305756 299.34936523 350.06860352 C299.08679047 348.43239384 298.8307579 346.7949585 298.60107422 345.15380859 C297.18911217 335.22180203 294.82216127 325.57355517 292.28686523 315.88110352 C292.1092868 315.2013446 291.93170837 314.52158569 291.74874878 313.82122803 C284.43238301 285.89841045 272.73344059 258.73551776 257.00952148 234.44750977 C256.60137207 233.81651367 256.19322266 233.18551758 255.77270508 232.53540039 C254.96319207 231.28802751 254.14985014 230.04312923 253.33227539 228.80102539 C251.65700151 226.23261069 250.3241669 223.99300851 249.34936523 221.06860352 C248.37452835 220.04405823 247.37128167 219.04619586 246.34936523 218.06860352 C245.35293059 216.81126398 244.3756231 215.5386617 243.41186523 214.25610352 C235.53287562 204.0529768 226.93862711 194.47759613 218.06982422 185.13061523 C214.99580941 181.8828846 212.14389117 178.56326986 209.34936523 175.06860352 C206.80293472 172.59897949 204.05324262 170.36385635 201.34936523 168.06860352 C200.44444336 167.26422852 199.53952148 166.45985352 198.60717773 165.63110352 C189.44842185 157.56267571 179.4874921 150.83743088 169.34936523 144.06860352 C167.27999304 142.68219061 165.21860534 141.28634782 163.16186523 139.88110352 C162.40518555 139.37192383 161.64850586 138.86274414 160.86889648 138.33813477 C160.36745117 137.91918945 159.86600586 137.50024414 159.34936523 137.06860352 C159.34936523 136.40860352 159.34936523 135.74860352 159.34936523 135.06860352 C158.78145264 134.95178223 158.21354004 134.83496094 157.62841797 134.71459961 C155.12957685 134.00630463 153.15263575 132.9966734 150.88452148 131.73266602 C150.0131958 131.25095947 149.14187012 130.76925293 148.24414062 130.27294922 C147.30948975 129.75176514 146.37483887 129.23058105 145.41186523 128.69360352 C143.41241254 127.59495063 141.41239906 126.49731779 139.41186523 125.40063477 C136.48490085 123.79257095 133.55829452 122.18392797 130.63452148 120.57006836 C117.26888406 113.22650479 103.66747486 107.31575917 89.34936523 102.06860352 C89.34936523 101.40860352 89.34936523 100.74860352 89.34936523 100.06860352 C87.86436523 100.56360352 87.86436523 100.56360352 86.34936523 101.06860352 C83.89718354 100.29152498 81.55304311 99.44150383 79.16186523 98.50610352 C63.19500737 92.58967215 46.60224773 88.93938343 29.75952148 86.61157227 C26.34936523 86.06860352 26.34936523 86.06860352 25.34936523 85.06860352 C21.35672662 84.61469962 17.34518909 84.39595833 13.33544922 84.13867188 C11.34676389 84.00997969 9.35878497 83.87051283 7.37084961 83.73071289 C-7.36321671 82.75722515 -21.92372631 82.96204575 -36.65063477 83.94360352 C-37.34719177 83.98906311 -38.04374878 84.03452271 -38.76141357 84.08135986 C-59.12566435 85.40732524 -59.12566435 85.40732524 -78.97875977 89.97094727 C-82.10206476 90.9046161 -85.21159577 91.71106023 -88.37719727 92.48266602 C-113.08530004 98.60033405 -136.99852152 108.67233201 -158.65063477 122.06860352 C-159.4537207 122.56102539 -160.25680664 123.05344727 -161.08422852 123.56079102 C-163.89667484 125.30502378 -166.68134667 127.08839563 -169.46313477 128.88110352 C-171.65063477 130.06860352 -171.65063477 130.06860352 -174.65063477 130.06860352 C-174.98063477 131.05860352 -175.31063477 132.04860352 -175.65063477 133.06860352 C-177.9502452 134.9106384 -180.24460453 136.6273958 -182.65063477 138.31860352 C-184.02365205 139.30471799 -185.39604993 140.29169546 -186.76782227 141.27954102 C-187.43523437 141.75746094 -188.10264648 142.23538086 -188.7902832 142.7277832 C-191.14912823 144.42788516 -193.47128016 146.17042217 -195.77563477 147.94360352 C-196.73856445 148.68223633 -196.73856445 148.68223633 -197.72094727 149.43579102 C-200.17826169 151.51505707 -202.39384053 153.77261748 -204.65063477 156.06860352 C-205.78634205 157.20633283 -206.92312828 158.34298579 -208.06079102 159.47875977 C-208.65827148 160.07624023 -209.25575195 160.6737207 -209.87133789 161.28930664 C-215.37329102 166.79125977 -215.37329102 166.79125977 -217.09643555 168.5065918 C-218.40306752 169.81979182 -219.68427962 171.1582156 -220.95922852 172.50219727 C-222.65063477 174.06860352 -222.65063477 174.06860352 -224.65063477 174.06860352 C-224.75375977 174.64610352 -224.85688477 175.22360352 -224.96313477 175.81860352 C-225.75959941 178.42521509 -226.84128753 180.04213461 -228.65063477 182.06860352 C-229.31063477 182.06860352 -229.97063477 182.06860352 -230.65063477 182.06860352 C-231.00834961 183.13788086 -231.00834961 183.13788086 -231.37329102 184.22875977 C-232.85214846 187.51661713 -234.7341816 189.78108384 -237.08813477 192.50610352 C-240.26986564 196.19104059 -242.62007555 199.63532472 -244.65063477 204.06860352 C-245.31063477 204.06860352 -245.97063477 204.06860352 -246.65063477 204.06860352 C-246.87493164 204.71055664 -247.09922852 205.35250977 -247.33032227 206.01391602 C-249.13932806 210.19924895 -251.45739057 214.02289359 -253.77563477 217.94360352 C-263.71221979 234.94349145 -263.71221979 234.94349145 -271.51391602 252.99438477 C-272.57817955 255.87265074 -273.77639403 258.64190827 -275.02563477 261.44360352 C-283.9122801 282.60895755 -288.66957714 305.40317289 -291.65063477 328.06860352 C-291.82030762 329.29297119 -291.98998047 330.51733887 -292.16479492 331.77880859 C-292.72113743 336.2700959 -292.90813671 340.74265278 -293.03735352 345.26391602 C-293.06373901 346.12590103 -293.09012451 346.98788605 -293.11730957 347.87599182 C-293.19796392 350.64839151 -293.26973037 353.42087556 -293.33813477 356.19360352 C-293.37374008 357.60955307 -293.37374008 357.60955307 -293.4100647 359.05410767 C-293.71996103 372.13724345 -293.72586302 384.9978257 -291.93139648 397.98999023 C-291.67092244 399.91840418 -291.47256434 401.854931 -291.27954102 403.79125977 C-289.3221797 422.01288111 -284.83711898 440.23294842 -277.52856445 457.0378418 C-276.65593351 459.05634685 -275.82566416 461.08820667 -275.00219727 463.12719727 C-268.49826466 478.96285926 -259.70069273 493.02235217 -248.65063477 506.06860352 C-247.90040039 506.96063477 -247.15016602 507.85266602 -246.37719727 508.77172852 C-236.97146782 519.56964174 -226.60760057 528.27890535 -214.65063477 536.06860352 C-213.66579102 536.71958008 -212.68094727 537.37055664 -211.66625977 538.04125977 C-183.87335409 556.12200365 -149.7578182 563.52191217 -117.08813477 557.88110352 C-106.24518132 555.53975298 -95.99293685 551.51430304 -87.65063477 544.06860352 C-87.09891602 543.59680664 -86.54719727 543.12500977 -85.97875977 542.63891602 C-81.9792641 538.97601157 -79.68817836 535.06329002 -77.65063477 530.06860352 C-77.33868164 529.37508789 -77.02672852 528.68157227 -76.70532227 527.96704102 C-71.33488804 513.88779452 -75.81807573 495.70670159 -81.52563477 482.38110352 C-82.22628457 480.93984288 -82.9349749 479.50247008 -83.65063477 478.06860352 C-84.02317383 477.22942383 -84.39571289 476.39024414 -84.77954102 475.52563477 C-88.46397628 467.55185696 -93.26695058 460.54777766 -98.33203125 453.39135742 C-98.88834229 452.60164551 -99.44465332 451.81193359 -100.01782227 450.99829102 C-100.5242627 450.28914551 -101.03070313 449.58 -101.55249023 448.84936523 C-102.65063477 447.06860352 -102.65063477 447.06860352 -102.65063477 445.06860352 C-103.31063477 445.06860352 -103.97063477 445.06860352 -104.65063477 445.06860352 C-105.31063477 443.41860352 -105.97063477 441.76860352 -106.65063477 440.06860352 C-107.31063477 440.06860352 -107.97063477 440.06860352 -108.65063477 440.06860352 C-109.91733114 438.61755227 -111.11402714 437.10507257 -112.27563477 435.56860352 C-115.63336692 431.23921993 -119.19009247 427.40849706 -123.18188477 423.66235352 C-124.65063477 422.06860352 -124.65063477 422.06860352 -124.65063477 420.06860352 C-125.31063477 420.06860352 -125.97063477 420.06860352 -126.65063477 420.06860352 C-128.13110352 418.59985352 -128.13110352 418.59985352 -129.83813477 416.56860352 C-130.45301758 415.84286133 -131.06790039 415.11711914 -131.70141602 414.36938477 C-132.3446582 413.61012695 -132.98790039 412.85086914 -133.65063477 412.06860352 C-135.51950076 409.98594221 -137.39055703 407.9054159 -139.26782227 405.83032227 C-142.14422349 402.16575461 -141.84537597 398.54350822 -141.65063477 394.06860352 C-140.99902344 390.94618225 -140.99902344 390.94618225 -140.06860352 387.73681641 C-139.54456184 385.90345985 -139.54456184 385.90345985 -139.00993347 384.0330658 C-138.61949369 382.70241689 -138.22888903 381.37181636 -137.83813477 380.04125977 C-137.43259064 378.63500839 -137.02789172 377.22851304 -136.62397766 375.8217926 C-135.76027657 372.82030451 -134.89084411 369.8205615 -134.01675415 366.82208252 C-132.63852888 362.09418695 -131.27285893 357.36272363 -129.90917969 352.63061523 C-128.28493734 346.99750042 -126.65771739 341.36526402 -125.02618313 335.73425674 C-121.30645827 322.89614922 -117.62879337 310.04625897 -113.96179199 297.19299316 C-112.97082505 293.720551 -111.97840117 290.24852824 -110.9855957 286.77661133 C-107.07813952 273.10691953 -103.19516824 259.43066287 -99.38623047 245.7331543 C-96.98404979 237.12528814 -94.47709781 228.54799266 -91.65063477 220.06860352 C-91.29184598 218.73101829 -90.94245012 217.3908961 -90.59985352 216.04907227 C-90.39553711 215.27370117 -90.1912207 214.49833008 -89.98071289 213.69946289 C-89.55596278 212.08437965 -89.13914607 210.46718692 -88.73071289 208.84790039 C-86.8021169 201.62909993 -83.9331799 196.41805784 -77.65063477 192.06860352 C-73.10603222 190.553736 -69.28242396 190.44559704 -64.77563477 192.16625977 C-60.91693197 194.51524509 -58.67686831 197.19923285 -55.96313477 200.75610352 C-55.44912109 201.41384766 -54.93510742 202.0715918 -54.40551758 202.74926758 C-49.75109314 208.77750254 -45.44027474 215.03076156 -41.18188477 221.34204102 C-38.37529073 225.49909709 -35.42723925 229.54519057 -32.45922852 233.58813477 C-30.76224685 235.91552863 -29.1059567 238.26527927 -27.46313477 240.63110352 C-24.18562679 245.33879679 -20.82780651 249.98561274 -17.46313477 254.63110352 C-15.19009752 257.77535011 -12.9194505 260.9213095 -10.65063477 264.06860352 C-10.06894531 264.87539551 -9.48725586 265.6821875 -8.88793945 266.51342773 C-7.19921012 268.86130016 -5.51760835 271.21410441 -3.83813477 273.56860352 C-3.05563354 274.65443726 -3.05563354 274.65443726 -2.25732422 275.76220703 C1.34936523 280.83899118 1.34936523 280.83899118 1.34936523 283.06860352 C2.00936523 283.06860352 2.66936523 283.06860352 3.34936523 283.06860352 C4.75390574 284.89087374 6.07103816 286.78067836 7.34936523 288.69360352 C8.15425351 289.88575406 8.96028493 291.07713343 9.76733398 292.26782227 C10.18805176 292.89092285 10.60876953 293.51402344 11.04223633 294.15600586 C13.59495848 297.89116189 16.25305916 301.55146854 18.89819336 305.22143555 C20.84582557 307.93260995 22.56451064 310.4925808 24.07983398 313.47875977 C26.18555892 316.48202259 26.18555892 316.48202259 30.04638672 316.40429688 C36.96191202 316.1939205 43.70665005 314.65179087 50.46655273 313.28735352 C51.95113715 312.99435718 53.43588241 312.70217486 54.92077637 312.41075134 C58.06351688 311.79245802 61.20520605 311.1691714 64.34613037 310.54171753 C69.25259705 309.56173766 74.16126896 308.59317824 79.07055664 307.62744141 C79.88301535 307.46760175 80.69547405 307.30776209 81.53255272 307.1430788 C83.16765527 306.82142743 84.8027661 306.49981811 86.43788528 306.17825127 C88.87657918 305.69830408 91.31506401 305.2173066 93.75350952 304.73609924 C106.39532874 302.24330694 119.0516507 299.83703949 131.72436523 297.50610352 C133.42815086 297.19202792 135.13192712 296.87790145 136.83569336 296.5637207 C139.20547813 296.12682592 141.57527668 295.69000933 143.94519043 295.2538147 C150.87817353 293.97597414 157.80242882 292.65506811 164.72436523 291.31860352 C165.73466797 291.12427734 166.7449707 290.92995117 167.78588867 290.72973633 C172.62834911 289.7961915 177.46708845 288.84665569 182.30249023 287.87719727 C183.25978027 287.68802734 184.21707031 287.49885742 185.20336914 287.30395508 C186.97253783 286.95417406 188.74058436 286.59863492 190.50708008 286.2355957 C202.56145165 283.86772858 202.56145165 283.86772858 207.66186523 286.06469727 C211.03450705 288.94549548 212.22631337 290.48174076 213.16186523 294.94360352 C212.43010126 304.28154821 207.5633522 313.85309951 203.34936523 322.06860352 C201.70004011 325.71086316 200.23011428 329.34174394 199.00170898 333.14282227 C197.28376106 338.34170786 195.36592538 343.45454897 193.41186523 348.56860352 C193.07735352 349.45418945 192.7428418 350.33977539 192.39819336 351.25219727 C190.50296102 356.22581278 188.47121116 361.1014693 186.28027344 365.95141602 C184.85554081 369.19172059 183.62837229 372.49569809 182.41186523 375.81860352 C181.89531334 377.21066988 181.37838066 378.60259499 180.86108398 379.99438477 C180.60762207 380.67839355 180.35416016 381.36240234 180.09301758 382.06713867 C177.39467578 389.32945188 174.63952003 396.53202727 171.43920898 403.58813477 C167.81004804 411.84805304 164.61366489 420.30023091 161.47436523 428.75610352 C158.98137275 435.4670007 156.35329885 442.11693437 153.67993164 448.7578125 C150.52825279 456.59516657 147.43463929 464.45494605 144.34936523 472.31860352 C144.09990143 472.95431274 143.85043762 473.59002197 143.59341431 474.24499512 C142.17788733 477.85253398 140.76323688 481.4604156 139.34936523 485.06860352 C138.68936523 485.06860352 138.02936523 485.06860352 137.34936523 485.06860352 C137.34936523 486.05860352 137.34936523 487.04860352 137.34936523 488.06860352 C134.35378418 489.78624098 132.1738632 490.3266977 128.73269653 490.36726379 C127.81031189 490.38276276 126.88792725 490.39826172 125.93759155 490.41423035 C124.93281769 490.42110367 123.92804382 490.42797699 122.89282227 490.43505859 C121.82898315 490.4499231 120.76514404 490.4647876 119.66906738 490.48010254 C116.14847634 490.52632394 112.62793998 490.55790284 109.10717773 490.58813477 C106.66103672 490.61446496 104.21490024 490.6412194 101.76876831 490.66838074 C96.63926145 490.72283537 91.50975099 490.76961109 86.38012695 490.81152344 C79.80700248 490.86620123 73.23437179 490.94370118 66.66156197 491.02747059 C61.6087541 491.0886893 56.55588733 491.13583165 51.50289536 491.17893028 C49.07955841 491.20166627 46.65626183 491.22923699 44.23303604 491.26172829 C40.84353137 491.30544737 37.45441666 491.32973921 34.06469727 491.34912109 C33.06397186 491.36611557 32.06324646 491.38311005 31.03219604 491.40061951 C25.7336084 491.40861195 21.87314653 491.16477524 17.34936523 488.06860352 C14.33690625 483.20979871 14.08377281 479.78231734 14.82983398 474.18188477 C15.82865537 470.1190098 16.81025035 468.42801344 20.34936523 466.06860352 C25.32689772 465.1219913 30.2757623 464.87942942 35.32910156 464.77148438 C36.09434647 464.75183121 36.85959137 464.73217804 37.64802551 464.71192932 C40.15906869 464.64845779 42.67020819 464.59086482 45.18139648 464.53344727 C46.94106329 464.49036129 48.70072203 464.44694461 50.46037292 464.4032135 C54.14279738 464.31252838 57.82527217 464.22452124 61.5078125 464.13867188 C66.20484286 464.02914589 70.9017456 463.9150048 75.59862232 463.7990942 C80.10534129 463.68808537 84.61211648 463.57944481 89.11889648 463.47094727 C90.39176482 463.44000127 90.39176482 463.44000127 91.69034767 463.4084301 C100.24430744 463.20195895 108.79216053 463.01286507 117.34936523 463.06860352 C117.47452515 462.46468781 117.59968506 461.86077209 117.7286377 461.23855591 C118.84800276 455.89523923 120.3198214 450.78781573 122.09936523 445.63110352 C122.63074991 444.06474295 123.16199563 442.49833523 123.69311523 440.93188477 C123.96510742 440.13476074 124.23709961 439.33763672 124.51733398 438.51635742 C125.8972277 434.45684615 127.24691536 430.38732181 128.59936523 426.31860352 C129.08359744 424.86543092 129.56796487 423.41230338 130.05249023 421.95922852 C130.25519531 421.35111328 130.45790039 420.74299805 130.66674805 420.11645508 C131.20091201 418.5139632 131.73796283 416.91243355 132.27612305 415.3112793 C133.48824516 411.64899406 134.65745743 407.97398466 135.81811523 404.29516602 C136.05483948 403.54611496 136.29156372 402.7970639 136.53546143 402.02531433 C138.66331387 395.28978303 140.78606419 388.55263817 142.90777588 381.81517029 C144.47943778 376.82507085 146.05555989 371.83641867 147.63647461 366.84924316 C148.57312316 363.89192602 149.50625435 360.93350755 150.43847656 357.97479248 C150.87757418 356.58373543 151.31815694 355.19314627 151.76025391 353.80303955 C152.37204143 351.87849191 152.97804144 349.95210734 153.58374023 348.02563477 C153.92630859 346.94258057 154.26887695 345.85952637 154.62182617 344.74365234 C155.48058485 342.04816579 155.48058485 342.04816579 155.34936523 339.06860352 C154.75849121 339.21894043 154.16761719 339.36927734 153.55883789 339.52416992 C150.69807127 340.25019989 147.83621545 340.9718571 144.97436523 341.69360352 C144.0475293 341.92950195 143.12069336 342.16540039 142.16577148 342.40844727 C135.80620065 344.00859735 129.43083776 345.51420533 123.03749084 346.97257996 C111.82381345 349.53180155 100.64339519 352.20118638 89.47834778 354.9635849 C87.07336391 355.55848521 84.66802334 356.15192197 82.26257324 356.74493408 C72.3880898 359.17962926 72.3880898 359.17962926 62.51806641 361.63232422 C58.42485256 362.65328785 54.32921119 363.66395328 50.23183632 364.66808128 C48.69817951 365.04587606 47.16541143 365.42730121 45.63365746 365.81273842 C31.38825846 369.39430984 17.04385216 372.78552275 3.45092773 365.44750977 C-4.7543149 360.0637725 -10.3490135 353.17164966 -15.65063477 345.06860352 C-16.73014492 343.50475957 -17.81387798 341.94382654 -18.90063477 340.38500977 C-20.08819083 338.67541329 -21.27569026 336.96577747 -22.46313477 335.25610352 C-23.039104 334.43126465 -23.61507324 333.60642578 -24.20849609 332.7565918 C-24.75272217 331.96623535 -25.29694824 331.17587891 -25.85766602 330.36157227 C-26.34726807 329.65540771 -26.83687012 328.94924316 -27.34130859 328.22167969 C-28.7452565 325.91300608 -29.71467055 323.59911192 -30.65063477 321.06860352 C-31.31063477 321.06860352 -31.97063477 321.06860352 -32.65063477 321.06860352 C-33.69945037 319.43221615 -34.69009171 317.75831794 -35.65063477 316.06860352 C-37.48296724 313.45154621 -39.35112377 310.86316632 -41.22485352 308.27563477 C-42.65063477 306.06860352 -42.65063477 306.06860352 -42.65063477 304.06860352 C-43.31063477 304.06860352 -43.97063477 304.06860352 -44.65063477 304.06860352 C-46.02563477 302.15454102 -46.02563477 302.15454102 -47.65063477 299.44360352 C-50.62553434 294.61961203 -53.77636678 289.98012698 -57.08813477 285.38110352 C-57.53737305 284.75703613 -57.98661133 284.13296875 -58.44946289 283.48999023 C-59.51425229 282.01455532 -60.58210203 280.54132971 -61.65063477 279.06860352 C-64.6329579 286.16501317 -67.06690013 293.32329583 -69.27563477 300.69360352 C-69.97682005 302.99978706 -70.67867395 305.3057674 -71.38110352 307.61157227 C-71.74896973 308.82248535 -72.11683594 310.03339844 -72.49584961 311.28100586 C-74.50274809 317.86346316 -76.54019904 324.43631068 -78.58813477 331.00610352 C-78.90044037 332.00868698 -78.90044037 332.00868698 -79.21905518 333.03152466 C-82.60749794 343.89350998 -86.13837708 354.70155766 -89.78320312 365.48046875 C-91.52955428 370.65081596 -93.16034529 375.81771123 -94.65063477 381.06860352 C-95.08336724 382.34631361 -95.52518016 383.62097544 -95.97485352 384.89282227 C-96.19850586 385.52897461 -96.4221582 386.16512695 -96.65258789 386.82055664 C-97.1146195 388.12503905 -97.58352559 389.42710445 -98.05883789 390.72680664 C-98.93727208 393.25391498 -99.66824112 395.50416451 -99.58422852 398.19750977 C-98.1761634 401.01953149 -96.18797083 403.03214544 -94.02563477 405.31860352 C-87.11839641 412.67215574 -80.66177176 420.15914495 -74.71313477 428.31860352 C-73.79854492 429.56867188 -73.79854492 429.56867188 -72.86547852 430.84399414 C-52.66532328 458.5869733 -34.86809925 491.98732486 -40.33813477 527.56860352 C-42.7102571 538.91135748 -46.98961906 552.11048462 -54.65063477 561.06860352 C-55.31063477 561.06860352 -55.97063477 561.06860352 -56.65063477 561.06860352 C-57.08375977 561.96579102 -57.08375977 561.96579102 -57.52563477 562.88110352 C-58.65063477 565.06860352 -58.65063477 565.06860352 -60.65063477 568.06860352 C-61.31063477 568.06860352 -61.97063477 568.06860352 -62.65063477 568.06860352 C-62.96000977 568.93485352 -62.96000977 568.93485352 -63.27563477 569.81860352 C-65.17621333 572.92864116 -67.56893649 574.12827497 -70.65063477 576.06860352 C-72.75596287 577.65738272 -74.83954339 579.27077229 -76.91625977 580.89672852 C-78.65063477 582.06860352 -78.65063477 582.06860352 -80.65063477 582.06860352 C-80.65063477 582.72860352 -80.65063477 583.38860352 -80.65063477 584.06860352 C-93.86380866 590.52410428 -107.20212851 594.63862746 -121.65063477 597.06860352 C-122.66899414 597.25422852 -123.68735352 597.43985352 -124.73657227 597.63110352 C-172.74135534 602.99690761 -221.52212584 586.77050263 -259.10766602 557.01782227 C-270.27601472 547.90721878 -281.85329441 537.53180458 -290.65063477 526.06860352 C-290.65063477 525.40860352 -290.65063477 524.74860352 -290.65063477 524.06860352 C-291.31063477 524.06860352 -291.97063477 524.06860352 -292.65063477 524.06860352 C-306.3683916 508.41629123 -318.11279018 487.36448497 -325.65063477 468.06860352 C-326.13918945 466.8865332 -326.62774414 465.70446289 -327.13110352 464.48657227 C-334.81582105 445.60412348 -340.1547301 426.13855021 -343.65063477 406.06860352 C-343.95420898 404.39024414 -343.95420898 404.39024414 -344.26391602 402.67797852 C-349.139419 373.64826606 -350.04018607 343.10404871 -347.58813477 313.81860352 C-347.5273877 313.08013184 -347.46664063 312.34166016 -347.40405273 311.58081055 C-345.6059002 290.44913828 -341.50795721 269.44890555 -335.65063477 249.06860352 C-335.15950195 247.2800293 -335.15950195 247.2800293 -334.65844727 245.45532227 C-328.80224219 225.77574941 -321.35270706 206.17575367 -311.65063477 188.06860352 C-311.26037109 187.33206543 -310.87010742 186.59552734 -310.46801758 185.83666992 C-303.75630319 173.21054565 -296.45173757 161.04940743 -288.65063477 149.06860352 C-287.9584082 147.98321289 -287.26618164 146.89782227 -286.55297852 145.77954102 C-284.75280326 143.21419887 -282.86148516 141.27538985 -280.65063477 139.06860352 C-278.58291276 136.47293687 -276.61854504 133.80288269 -274.65063477 131.13110352 C-264.73941981 117.74851006 -264.73941981 117.74851006 -260.65063477 114.06860352 C-259.99063477 114.06860352 -259.33063477 114.06860352 -258.65063477 114.06860352 C-258.42375977 113.51172852 -258.19688477 112.95485352 -257.96313477 112.38110352 C-256.64372881 110.05643588 -255.12021853 108.47212357 -253.22265625 106.61425781 C-251.40209025 104.82422779 -249.61679557 103.00202959 -247.83032227 101.17797852 C-240.89001852 94.13301876 -234.03467987 87.19626868 -226.23657227 81.09594727 C-223.40431935 78.87549521 -220.69265163 76.53893905 -217.96313477 74.19360352 C-208.70827737 66.46718161 -198.66392667 59.64102247 -188.24438477 53.58032227 C-185.63530527 52.05966901 -183.06075355 50.48735413 -180.4855957 48.91015625 C-177.22743545 46.92851401 -173.94159485 44.99513874 -170.65063477 43.06860352 C-170.06088867 42.71958984 -169.47114258 42.37057617 -168.86352539 42.01098633 C-145.3709764 28.28309838 -118.84009073 19.01789353 -92.65063477 12.06860352 C-90.91730912 11.58643823 -89.18422101 11.10341786 -87.45141602 10.61938477 C-75.08566347 7.25784481 -62.54562079 5.29391175 -49.86474609 3.52563477 C-47.6589625 3.21198289 -45.45569219 2.88028558 -43.25488281 2.53344727 C-34.89227765 1.24212394 -26.66800963 0.6619112 -18.21313477 0.44360352 C-17.01881836 0.40493164 -15.82450195 0.36625977 -14.59399414 0.32641602 C-9.72984665 0.17973198 -4.86543418 0.09143229 0 0 Z M-80.65063477 10.06860352 C-79.65063477 12.06860352 -79.65063477 12.06860352 -79.65063477 12.06860352 Z M-276.65063477 256.06860352 C-275.65063477 258.06860352 -275.65063477 258.06860352 -275.65063477 258.06860352 Z M-102.65063477 261.06860352 C-101.65063477 263.06860352 -101.65063477 263.06860352 -101.65063477 263.06860352 Z M195.34936523 336.06860352 C196.34936523 338.06860352 196.34936523 338.06860352 196.34936523 338.06860352 Z M-98.65063477 378.06860352 C-97.65063477 380.06860352 -97.65063477 380.06860352 -97.65063477 380.06860352 Z M151.34936523 446.06860352 C152.34936523 448.06860352 152.34936523 448.06860352 152.34936523 448.06860352 Z M118.34936523 461.06860352 C119.34936523 463.06860352 119.34936523 463.06860352 119.34936523 463.06860352 Z M254.34936523 570.06860352 C255.34936523 572.06860352 255.34936523 572.06860352 255.34936523 572.06860352 Z M186.34936523 640.06860352 C187.34936523 642.06860352 187.34936523 642.06860352 187.34936523 642.06860352 Z " fill="#F29F22" transform="translate(348.650634765625,-0.068603515625)"/>
<path d="M0 0 C7.6508255 0.39809078 14.64993089 2.95295658 21.875 5.33984375 C23.24399875 5.78596907 24.61322618 6.2313932 25.98266602 6.67616272 C29.59570838 7.85139938 33.20598468 9.03490534 36.81561279 10.22058105 C42.4815846 12.08016095 48.15170503 13.92707906 53.8215332 15.77486038 C55.23151718 16.2346339 56.64134821 16.69487673 58.05102539 17.15559006 C66.05868292 19.77250153 74.07618125 22.3517563 82.12109375 24.85205078 C82.8611113 25.08211728 83.60112885 25.31218378 84.36357117 25.54922199 C87.90711877 26.64933821 91.45228943 27.74387233 94.99975586 28.83128357 C96.2553833 29.21897415 97.51101074 29.60666473 98.8046875 30.00610352 C99.90796387 30.34416519 101.01124023 30.68222687 102.14794922 31.03053284 C104.58497442 31.85892479 106.72121723 32.82491495 109 34 C109.19301479 45.61628679 108.61606575 57.02517587 107.65478516 68.59594727 C107.5097183 70.39969191 107.36519819 72.20348059 107.22117615 74.00730896 C106.83245944 78.85428756 106.43567561 83.70057269 106.03692675 88.54673505 C105.70379538 92.60519534 105.37481787 96.66398805 105.04584634 100.72278732 C104.27004488 110.29426402 103.4877915 119.86519773 102.70117188 129.43579102 C101.89089612 139.29531739 101.09050364 149.1556103 100.29508555 159.01634556 C99.60981924 167.50800531 98.919025 175.99920246 98.22367132 184.49004215 C97.80924662 189.55075229 97.39677307 194.61160097 96.98939896 199.67288399 C96.6067425 204.42348828 96.21715022 209.17347411 95.82223701 213.92307472 C95.6786984 215.66312016 95.53756501 217.40336598 95.39904213 219.1438179 C95.20926145 221.52331936 95.0107023 223.90193402 94.80996704 226.28053284 C94.73115923 227.30747886 94.73115923 227.30747886 94.65075934 228.35517126 C93.71748813 239.06015849 93.71748813 239.06015849 90.25 242.9765625 C89.5075 243.52054688 88.765 244.06453125 88 244.625 C87.10925781 245.28886719 86.21851563 245.95273438 85.30078125 246.63671875 C84.20071422 247.4247492 83.10043291 248.21248056 82 249 C80.59690431 250.02631655 79.19461673 251.05373844 77.79296875 252.08203125 C70.07735556 257.71768245 62.27633382 263.21739983 54.40234375 268.62890625 C47.9068076 273.12641626 41.54310608 277.81321942 35.14550781 282.44824219 C27.05739475 288.29804267 18.91144942 294.06566956 10.75 299.8125 C4.03937395 304.53817507 -2.62240697 309.32798818 -9.26855469 314.14379883 C-15.01659575 318.3035001 -20.80469965 322.40319845 -26.60986328 326.48266602 C-30.97650293 329.55643785 -35.31356051 332.66744386 -39.63232422 335.80810547 C-43.41100242 338.55346779 -47.20400489 341.27865235 -51 344 C-51.85078125 344.61214355 -52.7015625 345.22428711 -53.578125 345.85498047 C-56.16730576 347.70925138 -58.76907609 349.5443572 -61.375 351.375 C-62.1779248 351.95306396 -62.98084961 352.53112793 -63.80810547 353.12670898 C-64.55979004 353.64950439 -65.31147461 354.1722998 -66.0859375 354.7109375 C-66.7464209 355.17806152 -67.4069043 355.64518555 -68.08740234 356.12646484 C-70 357 -70 357 -72.18212891 356.83056641 C-72.78202637 356.55647949 -73.38192383 356.28239258 -74 356 C-75.37956952 351.86129145 -74.08450439 350.3658042 -72.2734375 346.4375 C-71.97453613 345.78287277 -71.67563477 345.12824554 -71.36767578 344.45378113 C-70.37985928 342.29788745 -69.37775689 340.14898042 -68.375 338 C-67.68251484 336.49807491 -66.99062625 334.99587463 -66.29931641 333.4934082 C-61.56824857 323.24166312 -56.70894454 313.05300143 -51.77685547 302.89648438 C-47.93022773 294.97038503 -44.19180947 286.99928929 -40.5 279 C-36.24888889 269.79223891 -31.92006957 260.62785563 -27.5 251.5 C-17.65709957 231.15850139 -8.20199795 210.63910651 1 190 C-1.80848677 187.16681071 -4.620235 184.33690379 -7.43505859 181.51000977 C-8.39234381 180.54769305 -9.34872994 179.58448108 -10.30419922 178.62036133 C-11.67699788 177.23544555 -13.05329472 175.85400009 -14.4296875 174.47265625 C-15.25710449 173.64000244 -16.08452148 172.80734863 -16.93701172 171.94946289 C-18.84775193 169.9555946 -18.84775193 169.9555946 -21 169 C-21.17482407 169.60617661 -21.34964813 170.21235321 -21.5297699 170.8368988 C-23.33100702 176.97446801 -25.37130899 182.97763986 -27.59765625 188.97265625 C-27.94381485 189.91240799 -28.28997345 190.85215973 -28.6466217 191.82038879 C-29.78246871 194.90212582 -30.92247967 197.98230464 -32.0625 201.0625 C-32.86798371 203.24549187 -33.67315382 205.42859948 -34.47802734 207.61181641 C-36.15070785 212.14837373 -37.82473803 216.68442989 -39.49951172 221.22021484 C-41.88405793 227.68161422 -44.25837566 234.14672857 -46.62890625 240.61328125 C-56.34120741 267.10465031 -66.1054376 293.57609673 -76 320 C-76.2902002 320.77500854 -76.58040039 321.55001709 -76.87939453 322.34851074 C-78.48664265 326.63837149 -80.09795045 330.92666925 -81.71585083 335.21252441 C-82.41742319 337.07179351 -83.1168248 338.93188126 -83.81616211 340.79199219 C-84.22616455 341.87383789 -84.63616699 342.95568359 -85.05859375 344.0703125 C-85.58924438 345.47434326 -85.58924438 345.47434326 -86.13061523 346.90673828 C-87 349 -87 349 -88 350 C-89.66617115 350.04063832 -91.33388095 350.042721 -93 350 C-96.12693787 335.97276243 -98.0639245 321.74647012 -100.14517426 307.5359261 C-100.67601656 303.91744519 -101.21139559 300.29963536 -101.7462616 296.68174744 C-102.76202502 289.80652219 -103.7739838 282.93074288 -104.78445786 276.05473846 C-106.24434204 266.12185665 -107.71006809 256.18983657 -109.17591667 246.25783348 C-109.39649214 244.76314805 -109.6170586 243.26846129 -109.83761597 241.77377319 C-109.94611276 241.03851201 -110.05460954 240.30325083 -110.16639411 239.54570901 C-110.81608269 235.14134286 -111.46409607 230.73673397 -112.11070573 226.33191478 C-114.03740643 213.20711056 -115.97149451 200.08421565 -118.00927734 186.97607422 C-118.30276155 185.0758087 -118.59619551 183.17553542 -118.88957214 181.2752533 C-119.40706557 177.92597409 -119.93627955 174.57887113 -120.4733429 171.23268127 C-120.6970981 169.79117427 -120.92045114 168.34960475 -121.14331055 166.90795898 C-121.3350737 165.70316391 -121.52683685 164.49836884 -121.72441101 163.25706482 C-122.12868527 158.47912553 -121.84265163 155.2001402 -119.06640625 151.24609375 C-118.24011719 150.31925781 -117.41382812 149.39242188 -116.5625 148.4375 C-115.6436242 147.38343214 -114.727025 146.32737614 -113.8125 145.26953125 C-113.34328125 144.73021973 -112.8740625 144.1909082 -112.390625 143.63525391 C-110.18320427 141.03951934 -108.12189141 138.33867723 -106.0625 135.625 C-105.22947855 134.53231424 -104.39614151 133.43986902 -103.5625 132.34765625 C-102.93408203 131.52418701 -102.93408203 131.52418701 -102.29296875 130.68408203 C-100.07260248 127.79207173 -97.81804728 124.92710487 -95.5625 122.0625 C-95.10496338 121.48129395 -94.64742676 120.90008789 -94.17602539 120.30126953 C-93.24789964 119.12274369 -92.31959524 117.94435851 -91.39111328 116.76611328 C-89.09125768 113.84628958 -86.79580474 110.92300912 -84.5 108 C-81.78663406 104.54570963 -79.07274644 101.09183949 -76.35546875 97.640625 C-70.53870962 90.24971812 -64.75788152 82.83169368 -58.98999023 75.40258789 C-55.33678544 70.70272654 -51.64329205 66.03904109 -47.91015625 61.40234375 C-45.63665791 58.54303603 -43.40954017 55.64930289 -41.1875 52.75 C-34.89856599 44.54635981 -28.54610887 36.39160775 -22.05859375 28.34375 C-15.63525158 20.37356217 -9.40408103 12.28855584 -3.30078125 4.0703125 C-1 1 -1 1 0 0 Z " fill="#2E2B2E" transform="translate(129,898)"/>
<path d="M0 0 C0.33 0 0.66 0 1 0 C1 18.48 1 36.96 1 56 C0.67 56 0.34 56 0 56 C-0.86461811 49.89754404 -1.23091159 43.89307541 -1.38671875 37.734375 C-1.42500542 36.30064545 -1.42500542 36.30064545 -1.46406555 34.83795166 C-1.51577463 32.83115122 -1.56523435 30.82429167 -1.61254883 28.81738281 C-1.68762052 25.74506788 -1.77820001 22.6734435 -1.86914062 19.6015625 C-1.91762002 17.64585673 -1.96517833 15.69012787 -2.01171875 13.734375 C-2.04077805 12.81767029 -2.06983734 11.90096558 -2.09977722 10.95648193 C-2.11672134 10.1016925 -2.13366547 9.24690308 -2.15112305 8.36621094 C-2.17031296 7.61756775 -2.18950287 6.86892456 -2.20927429 6.09759521 C-1.96884728 3.68775046 -1.19696667 2.08700746 0 0 Z " fill="#E6A137" transform="translate(54,336)"/>
<path d="M0 0 C2.0390625 3.7421875 2.0390625 3.7421875 1.6875 6.0625 C1.460625 6.701875 1.23375 7.34125 1 8 C0.67 8.99 0.34 9.98 0 11 C0.66 11 1.32 11 2 11 C2 11.66 2 12.32 2 13 C1.34 13 0.68 13 0 13 C0.33 13.99 0.66 14.98 1 16 C0.01 16.33 -0.98 16.66 -2 17 C-1.67 17.99 -1.34 18.98 -1 20 C-2.65 21.65 -4.3 23.3 -6 25 C-5.33854315 19.33580057 -4.01244028 14.03729239 -2.4375 8.5625 C-2.20353516 7.73556641 -1.96957031 6.90863281 -1.72851562 6.05664062 C-1.15636985 4.03661574 -0.57874796 2.01814324 0 0 Z " fill="#E79F2C" transform="translate(238,285)"/>
<path d="M0 0 C7.85687323 -0.29836227 15.55467906 0.22045422 23.375 0.9375 C24.32584473 1.02435059 25.27668945 1.11120117 26.25634766 1.20068359 C30.87389032 1.64149718 35.43527998 2.15270247 40 3 C40 3.33 40 3.66 40 4 C37.52076199 4.02685095 35.0418116 4.04676547 32.5625 4.0625 C31.85544922 4.07087891 31.14839844 4.07925781 30.41992188 4.08789062 C28.61306441 4.09653588 26.80612397 4.05220011 25 4 C24.67 3.67 24.34 3.34 24 3 C22.29436222 2.84259395 20.58272756 2.74906608 18.87109375 2.68359375 C17.83662109 2.64169922 16.80214844 2.59980469 15.73632812 2.55664062 C14.64771484 2.51732422 13.55910156 2.47800781 12.4375 2.4375 C11.34501953 2.39431641 10.25253906 2.35113281 9.12695312 2.30664062 C6.41810436 2.20017932 3.70916008 2.09816484 1 2 C0.67 1.34 0.34 0.68 0 0 Z " fill="#E4A234" transform="translate(360,1)"/>
<path d="M0 0 C2 3 2 3 1.7578125 5.04296875 C1.171875 7.02864583 0.5859375 9.01432292 0 11 C-0.66 11 -1.32 11 -2 11 C-2 13.97 -2 16.94 -2 20 C-3.32 19.67 -4.64 19.34 -6 19 C-7.12642186 15.62073443 -6.96344705 15.27071722 -5.56640625 12.20703125 C-5.0878418 11.1387207 -5.0878418 11.1387207 -4.59960938 10.04882812 C-4.25736328 9.31083984 -3.91511719 8.57285156 -3.5625 7.8125 C-3.22412109 7.06291016 -2.88574219 6.31332031 -2.53710938 5.54101562 C-1.7000589 3.69007302 -0.85114596 1.84450334 0 0 Z " fill="#3B383B" transform="translate(61,1235)"/>
<path d="M0 0 C11.88 0.33 23.76 0.66 36 1 C36 1.33 36 1.66 36 2 C23.97960136 2.94014291 12.05276854 3.11114233 0 3 C0 2.01 0 1.02 0 0 Z " fill="#E7A13D" transform="translate(292,768)"/>
<path d="M0 0 C0.73605469 0.103125 1.47210938 0.20625 2.23046875 0.3125 C1.24046875 0.8075 1.24046875 0.8075 0.23046875 1.3125 C-0.42508244 3.83983235 -0.42508244 3.83983235 -0.76953125 6.3125 C-2.08953125 6.6425 -3.40953125 6.9725 -4.76953125 7.3125 C-4.43953125 8.3025 -4.10953125 9.2925 -3.76953125 10.3125 C-5.76953125 12.3125 -5.76953125 12.3125 -8.76953125 13.3125 C-8.76953125 12.6525 -8.76953125 11.9925 -8.76953125 11.3125 C-9.42953125 10.9825 -10.08953125 10.6525 -10.76953125 10.3125 C-9.55988975 8.63160859 -8.32604266 6.96811592 -7.08203125 5.3125 C-6.39753906 4.384375 -5.71304688 3.45625 -5.0078125 2.5 C-2.76953125 0.3125 -2.76953125 0.3125 0 0 Z " fill="#3A373A" transform="translate(131.76953125,897.6875)"/>
<path d="M0 0 C0.33 0.99 0.66 1.98 1 3 C-3.57729638 7.57729638 -8.89136073 8.58784521 -15 10 C-15.33 9.34 -15.66 8.68 -16 8 C-10.72 5.36 -5.44 2.72 0 0 Z " fill="#EBA132" transform="translate(500,661)"/>
<path d="M0 0 C1.32 0.66 2.64 1.32 4 2 C3.1875 3.9375 3.1875 3.9375 2 6 C1.01 6.33 0.02 6.66 -1 7 C-1.73323796 9.01508358 -1.73323796 9.01508358 -2 11 C-2 10.34 -2 9.68 -2 9 C-2.66 9 -3.32 9 -4 9 C-3.38461538 3.46153846 -3.38461538 3.46153846 -1.4375 1.125 C-0.963125 0.75375 -0.48875 0.3825 0 0 Z " fill="#3E3B3E" transform="translate(11,1049)"/>
<path d="M0 0 C0 0.99 0 1.98 0 3 C-1.94915794 4.62282833 -3.85606301 6.06827376 -5.9375 7.5 C-10.44462093 10.41697764 -10.44462093 10.41697764 -13 15 C-13.99 15 -14.98 15 -16 15 C-16.33 15.66 -16.66 16.32 -17 17 C-17.66 16.34 -18.32 15.68 -19 15 C-16.58414878 13.06148147 -14.16717498 11.12436757 -11.75 9.1875 C-11.06808594 8.64029297 -10.38617188 8.09308594 -9.68359375 7.52929688 C-6.48995837 4.97128795 -3.29844388 2.42282604 0 0 Z " fill="#E99F31" transform="translate(145,63)"/>
<path d="M0 0 C0.33 0.99 0.66 1.98 1 3 C1.99 3.33 2.98 3.66 4 4 C3.45276317 7.37462715 2.9451 9.08235 1 12 C-3 6.25 -3 6.25 -3 4 C-2.34 3.67 -1.68 3.34 -1 3 C-0.67 2.01 -0.34 1.02 0 0 Z " fill="#373538" transform="translate(68,1160)"/>
<path d="M0 0 C0.66 0.33 1.32 0.66 2 1 C1.34 3.64 0.68 6.28 0 9 C-2.64 9.66 -5.28 10.32 -8 11 C-7.59007813 10.45730469 -7.18015625 9.91460938 -6.7578125 9.35546875 C-6.21898438 8.64003906 -5.68015625 7.92460938 -5.125 7.1875 C-4.59132813 6.47980469 -4.05765625 5.77210938 -3.5078125 5.04296875 C-2.29185219 3.39543703 -1.13583859 1.70375789 0 0 Z " fill="#3E3B3E" transform="translate(78,963)"/>
<path d="M0 0 C1.32 0 2.64 0 4 0 C3.67 1.65 3.34 3.3 3 5 C3.66 4.34 4.32 3.68 5 3 C5.99 3 6.98 3 8 3 C7.34 4.65 6.68 6.3 6 8 C4.35 8 2.7 8 1 8 C0.67 5.36 0.34 2.72 0 0 Z " fill="#3E3B3F" transform="translate(35,1240)"/>
<path d="M0 0 C0.33 0 0.66 0 1 0 C1.33 1.65 1.66 3.3 2 5 C2.66 4.67 3.32 4.34 4 4 C3.50168276 7.68754757 2.89932357 9.60490662 0 12 C-0.99 11.67 -1.98 11.34 -3 11 C-2.01 7.37 -1.02 3.74 0 0 Z " fill="#ED9F30" transform="translate(220,348)"/>
<path d="M0 0 C4.34263862 -0.16702456 7.20960634 -0.12999997 11 2 C9.0636296 2.50435694 7.12585854 3.00333874 5.1875 3.5 C4.10855469 3.7784375 3.02960938 4.056875 1.91796875 4.34375 C-1 5 -1 5 -4 5 C-3.67 4.01 -3.34 3.02 -3 2 C-2.01 2 -1.02 2 0 2 C0 1.34 0 0.68 0 0 Z " fill="#E8A032" transform="translate(258,88)"/>
<path d="M0 0 C0.99 0.33 1.98 0.66 3 1 C1.7391988 2.03319813 0.46596742 3.05124379 -0.8125 4.0625 C-1.87404297 4.91521484 -1.87404297 4.91521484 -2.95703125 5.78515625 C-3.63121094 6.18605469 -4.30539063 6.58695313 -5 7 C-5.99 6.67 -6.98 6.34 -8 6 C-8.33 4.35 -8.66 2.7 -9 1 C-7.88625 1.020625 -6.7725 1.04125 -5.625 1.0625 C-2.16784079 1.26380718 -2.16784079 1.26380718 0 0 Z " fill="#383539" transform="translate(209,1145)"/>
<path d="M0 0 C2.55263088 2.274694 3.84144815 4.43202693 5.1875 7.5625 C5.53167969 8.34753906 5.87585938 9.13257813 6.23046875 9.94140625 C7 12 7 12 7 14 C6.01 14 5.02 14 4 14 C4 13.34 4 12.68 4 12 C3.34 12 2.68 12 2 12 C2 9.69 2 7.38 2 5 C1.34 5 0.68 5 0 5 C0 3.35 0 1.7 0 0 Z " fill="#EBA033" transform="translate(696,216)"/>
<path d="M0 0 C1.32 0 2.64 0 4 0 C3.01 3.3 2.02 6.6 1 10 C-2 7 -2 7 -2.3125 4.4375 C-2 2 -2 2 0 0 Z " fill="#3A373A" transform="translate(99,1081)"/>
<path d="M0 0 C0.33 0 0.66 0 1 0 C1.98248524 4.0527516 2.08159574 7.83861737 2 12 C0.33333333 12 -1.33333333 12 -3 12 C-2.01 8.04 -1.02 4.08 0 0 Z " fill="#EA9E34" transform="translate(638,488)"/>
<path d="M0 0 C0.33 0 0.66 0 1 0 C1.66 3.3 2.32 6.6 3 10 C1.02 10.66 -0.96 11.32 -3 12 C-2.68950274 10.56206608 -2.3765224 9.1246682 -2.0625 7.6875 C-1.88847656 6.88699219 -1.71445312 6.08648437 -1.53515625 5.26171875 C-1 3 -1 3 0 0 Z " fill="#ECA033" transform="translate(470,449)"/>
<path d="M0 0 C0.66 0.99 1.32 1.98 2 3 C-2.455 5.97 -2.455 5.97 -7 9 C-6.67 7.68 -6.34 6.36 -6 5 C-6.66 4.01 -7.32 3.02 -8 2 C-6.8553125 2.061875 -6.8553125 2.061875 -5.6875 2.125 C-2.77281584 2.22080824 -2.77281584 2.22080824 0 0 Z " fill="#3E3B3E" transform="translate(105,1218)"/>
<path d="M0 0 C4.95 0 9.9 0 15 0 C15 0.66 15 1.32 15 2 C10.05118487 2.90896604 5.93467213 3.08562787 1 2 C0.67 1.34 0.34 0.68 0 0 Z " fill="#FA9D1B" transform="translate(184,594)"/>
<path d="M0 0 C1.31602523 0.61754259 2.62773556 1.24428742 3.9375 1.875 C4.66839844 2.22304688 5.39929688 2.57109375 6.15234375 2.9296875 C8 4 8 4 9 6 C8.34 6 7.68 6 7 6 C7 6.99 7 7.98 7 9 C5.02 9 3.04 9 1 9 C1 8.34 1 7.68 1 7 C2.32 7 3.64 7 5 7 C4.2575 6.319375 4.2575 6.319375 3.5 5.625 C2 4 2 4 2 2 C1.34 2 0.68 2 0 2 C0 1.34 0 0.68 0 0 Z " fill="#F09E30" transform="translate(543,55)"/>
<path d="M0 0 C0.66 0 1.32 0 2 0 C1.814375 0.78375 1.62875 1.5675 1.4375 2.375 C0.74037734 4.97089775 0.74037734 4.97089775 2 7 C0.625 8.5 0.625 8.5 -1 10 C-1.66 10 -2.32 10 -3 10 C-3 10.99 -3 11.98 -3 13 C-3.66 13 -4.32 13 -5 13 C-4.54554036 11.58208592 -4.08625056 10.16571954 -3.625 8.75 C-3.24214844 7.56664062 -3.24214844 7.56664062 -2.8515625 6.359375 C-2.04826333 4.13372042 -1.10288338 2.09068328 0 0 Z " fill="#3D3A3D" transform="translate(101,1150)"/>
<path d="M0 0 C-0.33 0.99 -0.66 1.98 -1 3 C-2.64232772 3.72455635 -4.31624835 4.37774395 -6 5 C-10.74959625 7.17904044 -10.74959625 7.17904044 -14 11 C-15.32 10.67 -16.64 10.34 -18 10 C-16.27136297 8.89500435 -14.54206612 7.79104086 -12.8125 6.6875 C-11.84957031 6.07261719 -10.88664063 5.45773437 -9.89453125 4.82421875 C-8.93933594 4.22222656 -7.98414063 3.62023437 -7 3 C-6.09636719 2.42894531 -5.19273437 1.85789062 -4.26171875 1.26953125 C-2 0 -2 0 0 0 Z " fill="#E5A137" transform="translate(526,646)"/>
<path d="M0 0 C0.66 1.65 1.32 3.3 2 5 C-3.94 3.515 -3.94 3.515 -10 2 C-3 -1.5 -3 -1.5 0 0 Z " fill="#E99E33" transform="translate(156,586)"/>
<path d="M0 0 C0.33 0 0.66 0 1 0 C1 2.31 1 4.62 1 7 C1.66 7.33 2.32 7.66 3 8 C-0.625 11 -0.625 11 -4 11 C-3.52269162 9.5410574 -3.04308958 8.08286504 -2.5625 6.625 C-2.29566406 5.81289062 -2.02882813 5.00078125 -1.75390625 4.1640625 C-1 2 -1 2 0 0 Z " fill="#E3A32E" transform="translate(29,205)"/>
<path d="M0 0 C0.99 0.33 1.98 0.66 3 1 C-0.27708863 4.67033927 -3.71522208 6.69281189 -8 9 C-7.75 6.625 -7.75 6.625 -7 4 C-4.43689172 2.2058242 -3.16880694 2 0 2 C0 1.34 0 0.68 0 0 Z " fill="#3E3C3F" transform="translate(177,1167)"/>
<path d="M0 0 C0.66 0 1.32 0 2 0 C1.03603575 5.20540698 0.12319499 9.59913433 -3 14 C-4.57619796 10.84760408 -3.68832865 8.38428252 -3 5 C-1.5625 2.0625 -1.5625 2.0625 0 0 Z " fill="#E8A32D" transform="translate(709,521)"/>
<path d="M0 0 C1.32 0 2.64 0 4 0 C5.12377697 3.30435084 4.89554742 5.0506862 3.5625 8.25 C3.27503906 8.95640625 2.98757813 9.6628125 2.69140625 10.390625 C2.46324219 10.92171875 2.23507812 11.4528125 2 12 C1.67 12 1.34 12 1 12 C0.67 8.04 0.34 4.08 0 0 Z " fill="#ED9E2F" transform="translate(280,280)"/>
<path d="M0 0 C0.33 0.66 0.66 1.32 1 2 C0.03114628 3.68496298 -0.96986723 5.35178756 -2 7 C-2 7.66 -2 8.32 -2 9 C-4.375 10.6875 -4.375 10.6875 -7 12 C-7.66 11.67 -8.32 11.34 -9 11 C-6.03 7.37 -3.06 3.74 0 0 Z " fill="#E79F31" transform="translate(584,591)"/>
<path d="M0 0 C0.33 0 0.66 0 1 0 C1 1.98 1 3.96 1 6 C1.66 6.33 2.32 6.66 3 7 C1.35 8.65 -0.3 10.3 -2 12 C-3.15957207 8.52128379 -2.77456651 7.65780355 -1.5625 4.3125 C-1.13130859 3.10013672 -1.13130859 3.10013672 -0.69140625 1.86328125 C-0.46324219 1.24839844 -0.23507812 0.63351562 0 0 Z " fill="#E6A032" transform="translate(492,380)"/>
<path d="M0 0 C0.33 0 0.66 0 1 0 C2.00926479 4.15626368 2.10239579 8.04365094 2.0625 12.3125 C2.05347656 13.56675781 2.04445313 14.82101562 2.03515625 16.11328125 C2.01775391 17.54220703 2.01775391 17.54220703 2 19 C-0.40613322 14.18773356 -1.04823511 11.87999788 -0.5625 6.375 C-0.46066406 5.18648438 -0.35882812 3.99796875 -0.25390625 2.7734375 C-0.17011719 1.85820312 -0.08632813 0.94296875 0 0 Z " fill="#E6A239" transform="translate(733,339)"/>
<path d="M0 0 C0.99 0 1.98 0 3 0 C3.33 2.64 3.66 5.28 4 8 C2.68 7.67 1.36 7.34 0 7 C-0.38133299 5.0085944 -0.71325582 3.00720923 -1 1 C-0.67 0.67 -0.34 0.34 0 0 Z " fill="#E7A42A" transform="translate(59,428)"/>
<path d="M0 0 C0.33 0 0.66 0 1 0 C1.33 3.63 1.66 7.26 2 11 C1.01 11 0.02 11 -1 11 C-1.66 11.66 -2.32 12.32 -3 13 C-2.343621 8.51474352 -1.29925791 4.33085971 0 0 Z " fill="#EBA12E" transform="translate(500,355)"/>
<path d="M0 0 C0.66666667 2.66666667 1.33333333 5.33333333 2 8 C0.02 8.66 -1.96 9.32 -4 10 C-2.8905928 6.51329166 -1.73662334 3.22515763 0 0 Z " fill="#3D3A3D" transform="translate(82,1191)"/>
<path d="M0 0 C2.16099373 2.16099373 2.71563716 3.5210418 3.6875 6.375 C3.95949219 7.14585937 4.23148437 7.91671875 4.51171875 8.7109375 C5.04278009 11.20055308 4.81115526 12.61553018 4 15 C4 14.01 4 13.02 4 12 C3.01 12 2.02 12 1 12 C1.33 10.02 1.66 8.04 2 6 C1.34 6 0.68 6 0 6 C0 4.02 0 2.04 0 0 Z " fill="#E6A034" transform="translate(299,472)"/>
<path d="M0 0 C0 1.65 0 3.3 0 5 C-3.3 4.01 -6.6 3.02 -10 2 C-10 1.67 -10 1.34 -10 1 C-6.56484998 0.37542727 -3.50935186 0 0 0 Z " fill="#ECA12F" transform="translate(198,770)"/>
<path d="M0 0 C1.125 3.75 1.125 3.75 0 6 C0.66 6 1.32 6 2 6 C2 7.32 2 8.64 2 10 C0.02 10.99 0.02 10.99 -2 12 C-1.85904936 10.3745692 -1.71207913 8.74965949 -1.5625 7.125 C-1.48128906 6.22007812 -1.40007812 5.31515625 -1.31640625 4.3828125 C-1 2 -1 2 0 0 Z " fill="#E8A22D" transform="translate(148,730)"/>
<path d="M0 0 C0 1.65 0 3.3 0 5 C-0.99 5 -1.98 5 -3 5 C-3 4.34 -3 3.68 -3 3 C-3.99 3.495 -3.99 3.495 -5 4 C-6.99960012 4.039992 -9.00047242 4.04346799 -11 4 C-7.61125486 1.74083657 -4.15175481 0 0 0 Z " fill="#ED9F39" transform="translate(432,691)"/>
<path d="M0 0 C0 0.99 0 1.98 0 3 C-0.63808594 3.13277344 -1.27617187 3.26554687 -1.93359375 3.40234375 C-3.17302734 3.66724609 -3.17302734 3.66724609 -4.4375 3.9375 C-5.67306641 4.19853516 -5.67306641 4.19853516 -6.93359375 4.46484375 C-8.97661204 4.80752994 -8.97661204 4.80752994 -10 6 C-11.66617115 6.04063832 -13.33388095 6.042721 -15 6 C-12.49876879 4.33251253 -10.22323643 3.10045639 -7.5 1.875 C-6.7265625 1.52179687 -5.953125 1.16859375 -5.15625 0.8046875 C-3 0 -3 0 0 0 Z " fill="#E59E34" transform="translate(229,21)"/>
<path d="M0 0 C0.66 0 1.32 0 2 0 C2 0.66 2 1.32 2 2 C2.66 2 3.32 2 4 2 C4 3.32 4 4.64 4 6 C4.66 6 5.32 6 6 6 C6 6.66 6 7.32 6 8 C5.01 8.33 4.02 8.66 3 9 C1.68 6.36 0.36 3.72 -1 1 C-0.67 0.67 -0.34 0.34 0 0 Z " fill="#F19A2F" transform="translate(36,490)"/>
<path d="M0 0 C0.66 0 1.32 0 2 0 C2 0.66 2 1.32 2 2 C3.65 2.33 5.3 2.66 7 3 C7.33 5.64 7.66 8.28 8 11 C5.20127563 8.47211993 3.54226981 6.79588866 3 3 C2.34 3 1.68 3 1 3 C0.67 2.01 0.34 1.02 0 0 Z " fill="#E7A032" transform="translate(303,301)"/>
<path d="M0 0 C0.33 0.99 0.66 1.98 1 3 C-2.01887244 6.48331435 -4.56909529 7.79157144 -9 9 C-6.21000549 5.51250686 -3.74764169 2.49842779 0 0 Z " fill="#EA9C2D" transform="translate(125,79)"/>
<path d="M0 0 C0.66 0.66 1.32 1.32 2 2 C2.66 1.67 3.32 1.34 4 1 C3.01 4.3 2.02 7.6 1 11 C0.34 10.67 -0.32 10.34 -1 10 C-1.09978121 6.50765756 -0.77842938 3.40562852 0 0 Z " fill="#444144" transform="translate(44,1229)"/>
<path d="M0 0 C0.66 0.33 1.32 0.66 2 1 C2.40729228 3.32156597 2.74438677 5.6568787 3 8 C2.01 8 1.02 8 0 8 C0 7.01 0 6.02 0 5 C-0.99 5 -1.98 5 -3 5 C-1.125 1.125 -1.125 1.125 0 0 Z " fill="#383538" transform="translate(44,1007)"/>
<path d="M0 0 C0 0.66 0 1.32 0 2 C-0.969375 2.268125 -1.93875 2.53625 -2.9375 2.8125 C-3.948125 3.204375 -4.95875 3.59625 -6 4 C-6.33 4.99 -6.66 5.98 -7 7 C-8.98 7.33 -10.96 7.66 -13 8 C-9.81692689 4.43495812 -5.03655764 0 0 0 Z " fill="#E59C32" transform="translate(160,55)"/>
<path d="M0 0 C0.625 1.8125 0.625 1.8125 1 4 C-1.40436026 7.60654039 -2.94679607 7.85452932 -7 9 C-6.02180976 7.68677212 -5.0424189 6.37443848 -4.0625 5.0625 C-3.51722656 4.33160156 -2.97195312 3.60070312 -2.41015625 2.84765625 C-1 1 -1 1 0 0 Z " fill="#403D41" transform="translate(62,984)"/>
<path d="M0 0 C5.445 1.485 5.445 1.485 11 3 C11 3.33 11 3.66 11 4 C7 4 3 4 -1 4 C-0.67 2.68 -0.34 1.36 0 0 Z " fill="#EAA135" transform="translate(148,827)"/>
<path d="M0 0 C0.598125 0.350625 1.19625 0.70125 1.8125 1.0625 C-3.9375 5.0625 -3.9375 5.0625 -6.1875 5.0625 C-5.8575 3.4125 -5.5275 1.7625 -5.1875 0.0625 C-2.1875 -0.9375 -2.1875 -0.9375 0 0 Z " fill="#3F3D40" transform="translate(65.1875,1248.9375)"/>
<path d="M0 0 C2.31 0.66 4.62 1.32 7 2 C5.35 3.65 3.7 5.3 2 7 C1.01 6.34 0.02 5.68 -1 5 C-0.01 4.34 0.98 3.68 2 3 C1.34 2.01 0.68 1.02 0 0 Z " fill="#403D40" transform="translate(153,1180)"/>
<path d="M0 0 C1.65 0 3.3 0 5 0 C4.01 0.495 4.01 0.495 3 1 C2.34444881 3.52733235 2.34444881 3.52733235 2 6 C0.68 5.34 -0.64 4.68 -2 4 C-1.34 2.68 -0.68 1.36 0 0 Z " fill="#474447" transform="translate(129,898)"/>
<path d="M0 0 C0.66 0.33 1.32 0.66 2 1 C-3.0940919 7.70459519 -3.0940919 7.70459519 -6.875 8.9375 C-7.57625 8.958125 -8.2775 8.97875 -9 9 C-6 6 -3 3 0 0 Z " fill="#E4A133" transform="translate(552,624)"/>
<path d="M0 0 C0.66 0 1.32 0 2 0 C2.66 0.99 3.32 1.98 4 3 C4.99 3.33 5.98 3.66 7 4 C7 4.66 7 5.32 7 6 C6.34 6 5.68 6 5 6 C5.33 7.65 5.66 9.3 6 11 C3.13546142 7.58983503 1.65296434 4.09305456 0 0 Z " fill="#EC9C33" transform="translate(25,472)"/>
<path d="M0 0 C0.66 0.33 1.32 0.66 2 1 C0.68 4.63 -0.64 8.26 -2 12 C-2.33 12 -2.66 12 -3 12 C-3.08090971 10.37581255 -3.13914995 8.75048255 -3.1875 7.125 C-3.22230469 6.22007812 -3.25710938 5.31515625 -3.29296875 4.3828125 C-3.19628906 3.59648437 -3.09960938 2.81015625 -3 2 C-2.01 1.34 -1.02 0.68 0 0 Z " fill="#EDA02E" transform="translate(525,385)"/>
<path d="M0 0 C1.60080151 4.00200378 0.29279692 7.04556236 -1 11 C-1.66 11 -2.32 11 -3 11 C-2.53199289 6.94393835 -2.12046792 3.53411321 0 0 Z " fill="#E4A234" transform="translate(264,198)"/>
<path d="M0 0 C0.66 0.33 1.32 0.66 2 1 C-0.31881505 3.67901932 -2.31814468 4.66204403 -5.6875 5.6875 C-6.89986328 6.06455078 -6.89986328 6.06455078 -8.13671875 6.44921875 C-9.05904297 6.72185547 -9.05904297 6.72185547 -10 7 C-7.01767477 3.67356033 -4.13629913 1.70847138 0 0 Z " fill="#E99D34" transform="translate(180,42)"/>
<path d="M0 0 C0.66 0.66 1.32 1.32 2 2 C0.68 5.3 -0.64 8.6 -2 12 C-2.33 12 -2.66 12 -3 12 C-3 9.69 -3 7.38 -3 5 C-2.01 4.67 -1.02 4.34 0 4 C0 2.68 0 1.36 0 0 Z " fill="#E8A031" transform="translate(519,399)"/>
<path d="M0 0 C2.1991413 4.39828259 2.51855059 7.18550592 3 12 C2.67 11.34 2.34 10.68 2 10 C1.01 9.67 0.02 9.34 -1 9 C-0.67 6.03 -0.34 3.06 0 0 Z " fill="#E6A32F" transform="translate(721,278)"/>
<path d="M0 0 C0.33 0.99 0.66 1.98 1 3 C-1.10889262 6.82724957 -2.79609368 9.49860488 -7 11 C-5.22054913 6.95579349 -2.60470327 3.53921513 0 0 Z " fill="#EA9F30" transform="translate(76,128)"/>
<path d="M0 0 C-2.36292656 2.52588702 -3.66462511 3.88820837 -7 5 C-7 3.68 -7 2.36 -7 1 C-3.375 -1.125 -3.375 -1.125 0 0 Z " fill="#423F42" transform="translate(96,1228)"/>
<path d="M0 0 C2.00720923 0.28674418 4.0085944 0.61866701 6 1 C3.63707344 3.52588702 2.33537489 4.88820837 -1 6 C-1.042721 4.33388095 -1.04063832 2.66617115 -1 1 C-0.67 0.67 -0.34 0.34 0 0 Z " fill="#444144" transform="translate(138,1193)"/>
<path d="M0 0 C1.4391134 0.28359887 2.87625518 0.57721399 4.3125 0.875 C5.11300781 1.03742187 5.91351563 1.19984375 6.73828125 1.3671875 C9 2 9 2 12 4 C7.45194365 4.17835515 4.1205746 3.99785435 0 2 C0 1.34 0 0.68 0 0 Z " fill="#E7A239" transform="translate(176,837)"/>
<path d="M0 0 C0.0825 0.61875 0.165 1.2375 0.25 1.875 C0.81258459 4.18437567 0.81258459 4.18437567 3.0625 5.25 C3.701875 5.4975 4.34125 5.745 5 6 C4.67 6.66 4.34 7.32 4 8 C1.36 6.35 -1.28 4.7 -4 3 C-2.68 2.01 -1.36 1.02 0 0 Z " fill="#EAA037" transform="translate(252,795)"/>
<path d="M0 0 C6.625 -0.25 6.625 -0.25 10 2 C2.25 3.125 2.25 3.125 0 2 C0 1.34 0 0.68 0 0 Z " fill="#EAA136" transform="translate(232,592)"/>
<path d="M0 0 C0.70125 0.144375 1.4025 0.28875 2.125 0.4375 C5.07556141 1.01478375 8.03270151 1.51695141 11 2 C11 2.99 11 3.98 11 5 C6.87248551 4.39301257 3.6678852 2.96189209 0 1 C0 0.67 0 0.34 0 0 Z " fill="#E7A23C" transform="translate(124,578)"/>
<path d="M0 0 C-0.99 2.31 -1.98 4.62 -3 7 C-3.103125 6.360625 -3.20625 5.72125 -3.3125 5.0625 C-3.539375 4.381875 -3.76625 3.70125 -4 3 C-4.99 2.67 -5.98 2.34 -7 2 C-5.26578631 -1.46842738 -3.40984787 -1.13661596 0 0 Z " fill="#E7A329" transform="translate(303,545)"/>
<path d="M0 0 C0.66 1.32 1.32 2.64 2 4 C2.99 3.67 3.98 3.34 5 3 C4.67 4.32 4.34 5.64 4 7 C2.35 6.67 0.7 6.34 -1 6 C-0.67 5.34 -0.34 4.68 0 4 C-0.33 3.67 -0.66 3.34 -1 3 C-0.67 2.01 -0.34 1.02 0 0 Z " fill="#262326" transform="translate(115,1065)"/>
<path d="M0 0 C0.33 0 0.66 0 1 0 C1.25 2.3125 1.25 2.3125 1 5 C-1 6.8125 -1 6.8125 -3 8 C-3.66 7.67 -4.32 7.34 -5 7 C-4.19152271 5.83054208 -3.37810888 4.66449539 -2.5625 3.5 C-2.11003906 2.8503125 -1.65757813 2.200625 -1.19140625 1.53125 C-0.79824219 1.0259375 -0.40507813 0.520625 0 0 Z " fill="#454346" transform="translate(106,927)"/>
<path d="M0 0 C2.64 0.33 5.28 0.66 8 1 C8.33 2.65 8.66 4.3 9 6 C5.06326356 4.68775452 2.77280706 3.08089673 0 0 Z " fill="#EDA339" transform="translate(96,561)"/>
<path d="M0 0 C0.33 0 0.66 0 1 0 C0.67 3.63 0.34 7.26 0 11 C-0.99 11 -1.98 11 -3 11 C-2.01 7.37 -1.02 3.74 0 0 Z " fill="#E6A231" transform="translate(486,399)"/>
<path d="M0 0 C0.66 0 1.32 0 2 0 C1.01 3.3 0.02 6.6 -1 10 C-1.33 10 -1.66 10 -2 10 C-2.33 7.69 -2.66 5.38 -3 3 C-2.01 3 -1.02 3 0 3 C0 2.01 0 1.02 0 0 Z " fill="#E7A430" transform="translate(531,369)"/>
<path d="M0 0 C0.33 0 0.66 0 1 0 C1.33 2.64 1.66 5.28 2 8 C0.0625 7.1875 0.0625 7.1875 -2 6 C-2.33 5.01 -2.66 4.02 -3 3 C-2.34 3 -1.68 3 -1 3 C-0.67 2.01 -0.34 1.02 0 0 Z " fill="#F09B36" transform="translate(343,350)"/>
<path d="M0 0 C0 0.33 0 0.66 0 1 C-6.435 1.495 -6.435 1.495 -13 2 C-12 0 -12 0 -10.4375 -0.6875 C-6.83532854 -1.14931685 -3.58833068 -0.5382496 0 0 Z " fill="#E8A140" transform="translate(124,815)"/>
<path d="M0 0 C-0.639375 0.28875 -1.27875 0.5775 -1.9375 0.875 C-4.15206079 1.82823451 -4.15206079 1.82823451 -5 4 C-7.97 3.505 -7.97 3.505 -11 3 C-8.15930939 0.15930939 -3.81147953 -1.90573977 0 0 Z " fill="#E8A032" transform="translate(421,696)"/>
<path d="M0 0 C0.33 0.66 0.66 1.32 1 2 C0.04882866 3.1725131 -0.91117009 4.33787015 -1.875 5.5 C-2.40867187 6.1496875 -2.94234375 6.799375 -3.4921875 7.46875 C-3.98976563 7.9740625 -4.48734375 8.479375 -5 9 C-5.66 9 -6.32 9 -7 9 C-5.44499019 5.18315774 -2.96404505 2.80804268 0 0 Z " fill="#E9A02C" transform="translate(568,609)"/>
<path d="M0 0 C1.60080151 4.00200378 0.29279692 7.04556236 -1 11 C-1.33 11 -1.66 11 -2 11 C-2.33 8.03 -2.66 5.06 -3 2 C-2.34 2 -1.68 2 -1 2 C-0.67 1.34 -0.34 0.68 0 0 Z " fill="#E7A42E" transform="translate(725,473)"/>
<path d="M0 0 C4.875 3.625 4.875 3.625 6 7 C5.01 7.66 4.02 8.32 3 9 C2.01 6.03 1.02 3.06 0 0 Z " fill="#E9A437" transform="translate(255,407)"/>
<path d="M0 0 C0.33 0 0.66 0 1 0 C1.75 3.25 1.75 3.25 2 7 C0.0625 9.4375 0.0625 9.4375 -2 11 C-1 3.57142857 -1 3.57142857 0 0 Z " fill="#E9A234" transform="translate(234,299)"/>
<path d="M0 0 C0.66 0 1.32 0 2 0 C1.49701212 4.40114397 -0.08772731 6.71195019 -3 10 C-3.33 8.68 -3.66 7.36 -4 6 C-3.01 5.34 -2.02 4.68 -1 4 C-0.27617533 1.94074861 -0.27617533 1.94074861 0 0 Z " fill="#E7A033" transform="translate(92,216)"/>
<path d="M0 0 C1.65 1.65 3.3 3.3 5 5 C4.01 5 3.02 5 2 5 C2 5.66 2 6.32 2 7 C1.34 7 0.68 7 0 7 C0 4.69 0 2.38 0 0 Z " fill="#ECA036" transform="translate(648,143)"/>
<path d="M0 0 C0.33 1.32 0.66 2.64 1 4 C2.32 4 3.64 4 5 4 C5 4.99 5 5.98 5 7 C1.62496331 5.8141763 -0.64722731 4.72426311 -3 2 C-2.01 1.34 -1.02 0.68 0 0 Z " fill="#EDA031" transform="translate(511,134)"/>
<path d="M0 0 C0.99 0 1.98 0 3 0 C3.33 1.65 3.66 3.3 4 5 C3.01 5.33 2.02 5.66 1 6 C0.01 4.68 -0.98 3.36 -2 2 C-1.34 1.34 -0.68 0.68 0 0 Z " fill="#3C3A3D" transform="translate(112,1065)"/>
<path d="M0 0 C0.75 1.75 0.75 1.75 1 4 C-0.9375 6.25 -0.9375 6.25 -3 8 C-3 3.73173127 -2.62386487 3.06117568 0 0 Z " fill="#444144" transform="translate(20,1037)"/>
<path d="M0 0 C1.98 0.66 3.96 1.32 6 2 C5.67 2.66 5.34 3.32 5 4 C2.69 4 0.38 4 -2 4 C-1.34 2.68 -0.68 1.36 0 0 Z " fill="#444144" transform="translate(232,930)"/>
<path d="M0 0 C2.97 0 5.94 0 9 0 C5.09567131 1.95216435 2.27786748 2.50639991 -2 3 C-1.34 2.67 -0.68 2.34 0 2 C0 1.34 0 0.68 0 0 Z " fill="#E2A52F" transform="translate(450,747)"/>
<path d="M0 0 C0.33 0 0.66 0 1 0 C1 1.98 1 3.96 1 6 C-0.98 6.99 -0.98 6.99 -3 8 C-2.37240135 5.07120629 -1.41377341 2.63904371 0 0 Z " fill="#E89D31" transform="translate(614,546)"/>
<path d="M0 0 C0 1.65 0 3.3 0 5 C-1.32 5.33 -2.64 5.66 -4 6 C-4 3 -4 3 -2.5625 1.3125 C-1 0 -1 0 0 0 Z " fill="#EC9E2F" transform="translate(264,542)"/>
<path d="M0 0 C2.79872437 2.52788007 4.45773019 4.20411134 5 8 C4.34 8 3.68 8 3 8 C3 7.01 3 6.02 3 5 C1.68 4.34 0.36 3.68 -1 3 C-0.67 2.01 -0.34 1.02 0 0 Z " fill="#E8A229" transform="translate(321,242)"/>
<path d="M0 0 C0.66 0.33 1.32 0.66 2 1 C2.625 3.0625 2.625 3.0625 3 5 C2.01 5.495 2.01 5.495 1 6 C-0.5 4.625 -0.5 4.625 -2 3 C-2 2.34 -2 1.68 -2 1 C-1.34 0.67 -0.68 0.34 0 0 Z " fill="#373538" transform="translate(146,1186)"/>
<path d="M0 0 C2.0625 0.4375 2.0625 0.4375 4 1 C2.71034824 2.37562854 1.37310707 3.70766393 0 5 C-0.66 5 -1.32 5 -2 5 C-1.125 1.125 -1.125 1.125 0 0 Z " fill="#383538" transform="translate(183,1162)"/>
<path d="M0 0 C0.33 0.99 0.66 1.98 1 3 C-0.65 4.65 -2.3 6.3 -4 8 C-4.66 7.67 -5.32 7.34 -6 7 C-4.02 4.69 -2.04 2.38 0 0 Z " fill="#4A474A" transform="translate(29,1026)"/>
<path d="M0 0 C6.875 3.75 6.875 3.75 8 6 C5.03 5.01 2.06 4.02 -1 3 C-0.67 2.01 -0.34 1.02 0 0 Z " fill="#E7A232" transform="translate(305,787)"/>
<path d="M0 0 C0.66 0.33 1.32 0.66 2 1 C1.19152271 2.16945792 0.37810888 3.33550461 -0.4375 4.5 C-0.88996094 5.1496875 -1.34242188 5.799375 -1.80859375 6.46875 C-2.20175781 6.9740625 -2.59492187 7.479375 -3 8 C-3.33 8 -3.66 8 -4 8 C-4 6.35 -4 4.7 -4 3 C-2.68 2.67 -1.36 2.34 0 2 C0 1.34 0 0.68 0 0 Z " fill="#E99D33" transform="translate(659,613)"/>
<path d="M0 0 C0 3.90838866 -1.50567876 5.11594107 -4 8 C-3.67 5.69 -3.34 3.38 -3 1 C-2.01 0.67 -1.02 0.34 0 0 Z " fill="#EB9B38" transform="translate(671,596)"/>
<path d="M0 0 C0.99 0 1.98 0 3 0 C3 0.66 3 1.32 3 2 C3.66 2 4.32 2 5 2 C5 2.66 5 3.32 5 4 C3.35 4.33 1.7 4.66 0 5 C0 3.35 0 1.7 0 0 Z " fill="#FA9C2A" transform="translate(651,432)"/>
<path d="M0 0 C2.52588702 2.36292656 3.88820837 3.66462511 5 7 C3.68 7.33 2.36 7.66 1 8 C0.67 5.36 0.34 2.72 0 0 Z " fill="#EF9C37" transform="translate(311,228)"/>
<path d="" fill="#DE982D" transform="translate(0,0)"/>
</svg>
