<?xml version="1.0" encoding="UTF-8"?>
<svg version="1.1" xmlns="http://www.w3.org/2000/svg" width="2483" height="1255">
<path d="M0 0 C2.65184438 0.55160435 5.31018841 1.06848518 7.96875 1.58660889 C51.23958584 10.32410476 93.88569536 29.77733612 130.9375 53.40301514 C131.52370117 53.77619873 132.10990234 54.14938232 132.71386719 54.53387451 C136.1720392 56.75326727 139.56445803 59.05675316 142.9375 61.40301514 C144.01773438 62.1468042 145.09796875 62.89059326 146.2109375 63.65692139 C158.61114157 72.28941848 170.28759045 81.79868292 181.359375 92.07489014 C183.9983728 94.45798512 186.72223325 96.68390539 189.5 98.90301514 C197.04196373 105.00329108 203.73712415 111.85442856 210.03515625 119.21942139 C211.94389631 121.4103571 213.90627514 123.5454011 215.88378906 125.67425537 C227.16750428 137.84686203 236.63867219 150.87366211 245.99658203 164.57147217 C247.72113405 167.08736579 249.46411853 169.58890758 251.21484375 172.08660889 C259.23017629 183.64200345 265.71645867 195.80524865 271.9375 208.40301514 C272.38947754 209.29569092 272.84145508 210.1883667 273.30712891 211.10809326 C280.1545112 224.69785965 285.36978168 238.72352835 290.3125 253.09051514 C290.6075946 253.94103455 290.90268921 254.79155396 291.20672607 255.66784668 C297.75496454 274.64496319 302.14271763 293.8112929 305.25048828 313.63250732 C305.68779571 316.40488985 306.14595892 319.17329895 306.60546875 321.94207764 C308.62470033 334.42966841 309.6520525 346.76010902 309.9375 359.40301514 C309.95548645 360.17010803 309.9734729 360.93720093 309.99200439 361.72753906 C311.22647121 420.04856898 302.82340636 479.08550298 277.9375 532.40301514 C277.16237061 534.09055908 277.16237061 534.09055908 276.37158203 535.81219482 C266.28747286 557.71140808 254.4983936 577.53581032 240.51220703 597.17156982 C239.12853254 599.13231166 237.77196105 601.10651893 236.43359375 603.09832764 C228.80650451 614.42298609 220.16506069 624.38599322 210.42578125 633.91864014 C208.30433972 636.0367513 206.32033198 638.18760884 204.375 640.46551514 C197.88310885 648.02139795 190.78332663 654.74638554 182.98486328 660.93597412 C180.46233538 662.97812638 178.00410345 665.07236571 175.55978394 667.206604 C168.20878425 673.58390719 160.44529206 679.07623768 152.3125 684.40301514 C151.65731384 684.83533447 151.00212769 685.26765381 150.3270874 685.71307373 C135.86385242 695.25369088 121.15165933 703.88568325 105.6875 711.71551514 C104.74148926 712.19569092 103.79547852 712.6758667 102.82080078 713.17059326 C67.2553807 730.82779269 27.54106628 742.77843184 -11.25 750.65301514 C-12.48382919 750.90438232 -12.48382919 750.90438232 -13.74258423 751.16082764 C-34.54019731 755.35892653 -55.53000321 757.81457455 -76.625 759.96551514 C-77.67058075 760.07318207 -78.7161615 760.180849 -79.79342651 760.29177856 C-99.52435895 762.30877657 -119.24670648 763.61422574 -139.0625 764.40301514 C-138.61036133 764.71939941 -138.15822266 765.03578369 -137.69238281 765.36175537 C-133.18588664 768.51892939 -128.69504434 771.69733203 -124.21142578 774.88690186 C-122.47624221 776.11111112 -120.72318645 777.30996517 -118.96484375 778.50067139 C-104.55990696 788.5944904 -89.6778864 802.36615687 -82.0625 818.40301514 C-81.32193359 819.95762451 -81.32193359 819.95762451 -80.56640625 821.54364014 C-74.44081246 835.35659383 -72.91820575 848.91291141 -78.0625 863.40301514 C-82.36869845 872.32616862 -89.20353891 878.15120394 -98.0625 882.40301514 C-102.01699224 883.69133399 -105.97870075 884.6275396 -110.0625 885.40301514 C-110.96871094 885.58864014 -111.87492187 885.77426514 -112.80859375 885.96551514 C-121.14033865 887.08574974 -129.67829817 886.59877613 -138.0625 886.40301514 C-138.97338379 886.384646 -139.88426758 886.36627686 -140.82275391 886.34735107 C-162.49551407 885.72734454 -183.59343927 880.52417583 -204.68884277 875.91668701 C-207.84281462 875.23415096 -211.00319207 874.58400486 -214.1640625 873.93426514 C-242.09079117 868.04495501 -269.77854345 859.47957831 -296.125 848.52801514 C-296.86949402 848.22163116 -297.61398804 847.91524719 -298.38104248 847.59957886 C-320.26342905 838.52115816 -320.26342905 838.52115816 -325.0625 829.40301514 C-326.58701646 824.02861217 -326.30472642 819.3013989 -324.0859375 814.19207764 C-321.85087647 810.28498622 -318.74857599 807.86039913 -315.0625 805.40301514 C-308.26198174 803.88626335 -302.98430711 805.65780524 -297.0546875 808.92254639 C-287.02289874 814.16604857 -276.53559254 817.95926681 -265.875 821.71551514 C-264.83903687 822.08230377 -263.80307373 822.44909241 -262.73571777 822.82699585 C-221.88907032 837.19387392 -177.29396049 848.56518415 -133.75 848.59051514 C-132.62271484 848.60276123 -131.49542969 848.61500732 -130.33398438 848.62762451 C-124.51360499 848.63788973 -119.547691 848.40554518 -114.0625 846.40301514 C-119.12342057 826.01473512 -141.2018937 812.90173128 -158.11401367 802.59295654 C-161.72419085 800.45674147 -165.38151616 798.41438088 -169.0625 796.40301514 C-169.95759277 795.91365479 -170.85268555 795.42429443 -171.77490234 794.92010498 C-192.28541721 783.80461752 -213.29401106 774.0382989 -235.109375 765.79364014 C-236.69049576 765.19521553 -236.69049576 765.19521553 -238.30355835 764.58470154 C-243.59569649 762.58719434 -248.89513511 760.61287963 -254.20751953 758.66986084 C-256.17749005 757.93659913 -258.14738281 757.20312846 -260.1171875 756.46942139 C-261.01709412 756.14794128 -261.91700073 755.82646118 -262.84417725 755.49523926 C-269.96040476 752.82249124 -275.55326499 749.34419182 -279.4375 742.65301514 C-282.49400938 735.70640291 -282.96569476 728.67939341 -280.20703125 721.57489014 C-277.07891589 715.63894426 -272.54384927 710.48193849 -266.0625 708.40301514 C-258.04257458 707.31868466 -250.2271246 707.40231154 -242.17578125 707.96160889 C-241.07566208 708.02961197 -239.97554291 708.09761505 -238.84208679 708.16767883 C-235.3524817 708.38377183 -231.86373374 708.61081126 -228.375 708.84051514 C-210.90726226 709.98669215 -193.56977557 710.65384401 -176.0625 710.40301514 C-175.00619888 710.38991806 -175.00619888 710.38991806 -173.92855835 710.3765564 C-96.63034193 709.33937798 -13.28404187 696.19667774 55.9375 660.40301514 C56.88834473 659.91204346 57.83918945 659.42107178 58.81884766 658.91522217 C70.23163286 652.9604792 81.25065902 646.57711445 91.9375 639.40301514 C92.94683594 638.74946045 93.95617187 638.09590576 94.99609375 637.42254639 C105.54268942 630.55148731 115.41257937 623.01342915 124.67578125 614.48114014 C126.72776416 612.59572579 128.81901954 610.77531481 130.9375 608.96551514 C138.53547465 602.31537636 145.36703912 595.15214051 151.63671875 587.23895264 C153.49002424 584.95457269 155.38530392 582.75109758 157.3359375 580.55145264 C188.54712348 545.00896944 208.56865006 497.06039451 217.44335938 450.94549561 C217.94539179 448.36240987 218.49509955 445.79229072 219.046875 443.21942139 C234.28005101 368.61348365 216.68523626 285.78415599 175.40380859 222.27020264 C168.01048048 211.12471919 160.12913445 200.5442405 150.97021484 190.78045654 C147.99025758 187.59657981 145.21047077 184.3180126 142.5 180.90301514 C134.37151095 170.84745114 125.05312755 162.42221553 114.9375 154.40301514 C114.08929687 153.68758545 113.24109375 152.97215576 112.3671875 152.23504639 C105.33513869 146.30503508 97.90434484 141.119805 90.27685547 136.00018311 C88.51802822 134.79936409 86.77477327 133.57568658 85.03955078 132.34100342 C77.72359184 127.16076611 70.26544074 122.55289245 62.390625 118.27264404 C60.5652268 117.27949871 58.74719502 116.27379585 56.9296875 115.26629639 C24.61423117 97.47065559 -10.51141091 85.05623674 -46.875 78.96551514 C-47.62518402 78.83936829 -48.37536804 78.71322144 -49.14828491 78.58325195 C-84.9891391 72.6532224 -122.76620188 73.84362083 -158.0625 82.40301514 C-159.60284912 82.77619873 -159.60284912 82.77619873 -161.17431641 83.15692139 C-177.3880126 87.18818866 -192.72350744 92.82015644 -208.0625 99.40301514 C-208.81869629 99.71786865 -209.57489258 100.03272217 -210.35400391 100.3571167 C-230.04612205 108.59039918 -249.73765777 120.6713778 -266.0625 134.40301514 C-266.94550781 135.09910889 -267.82851563 135.79520264 -268.73828125 136.51239014 C-280.3970935 145.75845253 -291.48744727 156.00103582 -301.0625 167.40301514 C-301.53864746 167.96681885 -302.01479492 168.53062256 -302.50537109 169.11151123 C-346.62804567 221.58357459 -369.1152053 284.20775628 -371.0625 352.40301514 C-371.09263184 353.37061768 -371.12276367 354.33822021 -371.15380859 355.33514404 C-372.63817155 408.46021063 -357.26094161 462.70813314 -321.0625 502.40301514 C-320.58296875 502.9292749 -320.1034375 503.45553467 -319.609375 503.9977417 C-294.29734202 531.3785466 -258.198821 548.2748856 -221.0625 550.40301514 C-220.07378906 550.47391357 -219.08507812 550.54481201 -218.06640625 550.61785889 C-201.27566311 551.25677605 -182.38059082 546.75564637 -169.0625 536.40301514 C-168.23105469 535.78426514 -167.39960938 535.16551514 -166.54296875 534.52801514 C-158.75257512 527.85404012 -155.1309731 518.3976906 -154.0625 508.40301514 C-152.96759624 474.9400189 -175.24943898 444.71927332 -197.0625 421.40301514 C-198.19371875 420.20221947 -199.32525215 419.00172017 -200.45703125 417.80145264 C-221.14983877 395.83199658 -221.14983877 395.83199658 -221.02147579 389.32266235 C-220.41034668 382.75928097 -218.95032564 376.73382129 -217.04711914 370.43426514 C-216.73865744 369.38617172 -216.43019573 368.33807831 -216.1123867 367.25822449 C-215.44449256 364.99210834 -214.77261851 362.72716213 -214.09716606 360.46328735 C-212.63722006 355.5689774 -211.19724315 350.66886044 -209.75616932 345.76896667 C-208.9995293 343.19655108 -208.24209556 340.62438444 -207.48343182 338.05256653 C-203.48955815 324.50513985 -199.61284004 310.92471454 -195.74609375 297.34051514 C-195.05925417 294.93121949 -194.3722932 292.52195845 -193.68521118 290.11273193 C-191.26960008 281.64086198 -188.85655689 273.16826147 -186.44451904 264.69537354 C-184.35602605 257.3590358 -182.26589318 250.02316946 -180.17344856 242.68795776 C-179.22207421 239.35050583 -178.27302153 236.01240007 -177.32408142 232.67425537 C-175.87620174 227.58932859 -174.41538484 222.50831678 -172.94135666 217.4309082 C-172.33826683 215.35310464 -171.73768204 213.27457283 -171.13920975 211.19543457 C-170.22633569 208.0360133 -169.29890597 204.88121505 -168.36743164 201.72723389 C-168.09451262 200.77597122 -167.82159361 199.82470856 -167.54040432 198.84461975 C-165.81908486 193.08810922 -164.09965526 187.74506888 -159.16796875 183.94207764 C-153.55725653 181.26813332 -149.23466728 180.39062132 -143.125 182.34051514 C-132.87272203 189.24511051 -126.09756548 201.45061854 -119.0625 211.40301514 C-118.54606934 212.13149658 -118.02963867 212.85997803 -117.49755859 213.61053467 C-113.51195636 219.23296614 -109.54658886 224.86954221 -105.58300781 230.50750732 C-98.36414976 240.77189547 -91.06630398 250.97520786 -83.70361328 261.13690186 C-80.98601819 264.88946325 -78.27461427 268.6464918 -75.5625 272.40301514 C-74.48828697 273.88999844 -73.41406821 275.37697759 -72.33984375 276.86395264 C-70.08002711 279.99272014 -67.82255342 283.12316316 -65.56640625 286.25457764 C-64.99019531 287.05379639 -64.41398437 287.85301514 -63.8203125 288.67645264 C-62.72985098 290.18902829 -61.63996029 291.70201573 -60.55078125 293.21551514 C-60.050625 293.90903076 -59.55046875 294.60254639 -59.03515625 295.31707764 C-58.38945679 296.21354004 -58.38945679 296.21354004 -57.73071289 297.12811279 C-56.1540309 299.27819662 -54.55880279 301.41285706 -52.95823669 303.54519653 C-52.41641471 304.26716909 -51.87459272 304.98914165 -51.31635189 305.73299217 C-50.90258077 306.28409975 -50.48880964 306.83520733 -50.0625 307.40301514 C-31.11909814 304.076491 -12.21889123 300.5632842 6.66506505 296.91368127 C10.19890816 296.23118621 13.73319916 295.55101793 17.2674408 294.87059021 C23.92251304 293.58900221 30.57723698 292.30561606 37.23181003 291.02143878 C49.17642083 288.71647971 61.12167845 286.41487558 73.06701177 284.11366433 C77.24053403 283.30958285 81.41391332 282.50476478 85.58716595 281.69928515 C88.79118488 281.08098901 91.99533865 280.46339222 95.19946289 279.84564209 C96.33152161 279.6269194 97.46358032 279.40819672 98.62994385 279.18284607 C101.73165335 278.58521041 104.83414858 277.99206236 107.9375 277.40301514 C108.95377409 277.21008566 109.97004818 277.01715618 111.01711845 276.81838036 C111.988332 276.63737597 112.95954556 276.45637157 113.96018982 276.2698822 C114.8154296 276.10992358 115.67066938 275.94996496 116.55182552 275.78515911 C121.24825129 275.03287257 125.29288646 274.67207579 129.75 276.65301514 C133.60416667 279.73634847 133.60416667 279.73634847 134.9375 282.40301514 C135.59354619 290.10774368 133.72736096 295.60360582 130.75 302.65301514 C129.96433828 304.57468356 129.17918597 306.49656032 128.39453125 308.41864014 C127.99137695 309.39309082 127.58822266 310.3675415 127.17285156 311.371521 C125.45466416 315.58787139 123.83820876 319.84120266 122.21264648 324.09393311 C120.05279956 329.69886614 117.80322444 335.26753901 115.5625 340.84051514 C110.8793516 352.5133564 106.23914427 364.20273555 101.625 375.90301514 C101.31054932 376.70034058 100.99609863 377.49766602 100.67211914 378.31915283 C99.06499964 382.39462628 97.4583932 386.47030175 95.85205078 390.54608154 C93.98461691 395.28403009 92.11563721 400.02136743 90.24609375 404.75848389 C89.79058136 405.91292244 89.79058136 405.91292244 89.3258667 407.09068298 C87.79493892 410.97012053 86.26269327 414.84902936 84.72802734 418.72698975 C81.64072457 426.53181748 78.56785433 434.34178663 75.52697754 442.1648407 C73.98314598 446.13358733 72.43256601 450.09968079 70.88128662 454.06552124 C70.13300997 455.98368918 69.38788036 457.90308806 68.64605713 459.82376099 C67.61189163 462.50051614 66.56689045 465.17280634 65.51953125 467.84442139 C65.06419258 469.03550003 65.06419258 469.03550003 64.59965515 470.25064087 C60.74697786 479.9982762 60.74697786 479.9982762 55.9375 482.40301514 C54.4135573 482.50373069 52.88531019 482.54242566 51.35806274 482.55018616 C49.91116814 482.56091911 49.91116814 482.56091911 48.43504333 482.5718689 C47.37318314 482.5745578 46.31132294 482.5772467 45.21728516 482.58001709 C43.54399391 482.58987389 43.54399391 482.58987389 41.8368988 482.59992981 C38.13345275 482.61969347 34.43004727 482.63133108 30.7265625 482.64129639 C29.46464458 482.64537191 28.20272667 482.64944744 26.90256882 482.65364647 C20.91500829 482.67236462 14.92747248 482.68692884 8.9398905 482.69525844 C2.02628432 482.70503494 -4.88700204 482.73136541 -11.80049551 482.77175933 C-17.78699378 482.80553797 -23.77333653 482.81740168 -29.75993729 482.82146263 C-32.30770667 482.82634625 -34.8554722 482.83801024 -37.40317917 482.85650063 C-40.9635468 482.88073817 -44.52307196 482.87995503 -48.08349609 482.87298584 C-49.6702137 482.89220093 -49.6702137 482.89220093 -51.28898621 482.9118042 C-58.41034666 482.86083781 -58.41034666 482.86083781 -61.68618774 480.56114197 C-64.03282992 476.88148902 -64.24853717 473.80286453 -64.3125 469.52801514 C-64.33828125 468.49934326 -64.3640625 467.47067139 -64.390625 466.41082764 C-64.01457858 462.96373543 -63.12351514 461.16708685 -61.0625 458.40301514 C-57.53559801 456.05174714 -55.73756961 456.03898576 -51.54223633 455.80926514 C-50.88367803 455.77224487 -50.22511972 455.73522461 -49.54660511 455.69708252 C-42.00559801 455.29925129 -34.45630275 455.11988058 -26.90720177 454.9574585 C-24.32198426 454.90161685 -21.73690159 454.84133698 -19.15180969 454.77996826 C-11.81529039 454.60661503 -4.47859105 454.44148672 2.8581543 454.27801514 C7.37534908 454.17706827 11.89241925 454.07155904 16.40944481 453.96331787 C18.95651495 453.90375795 21.50366538 453.84964067 24.05085754 453.79559326 C25.59942326 453.7587838 27.14798225 453.72169033 28.6965332 453.68426514 C29.40448532 453.67072998 30.11243744 453.65719482 30.84184265 453.64324951 C34.51352152 453.58963455 34.51352152 453.58963455 37.9375 452.40301514 C39.05095536 449.47595382 40.04925257 446.57115161 41 443.59051514 C41.30358932 442.65863373 41.60717865 441.72675232 41.91996765 440.76663208 C42.93344975 437.64784522 43.93559226 434.52553779 44.9375 431.40301514 C45.64385036 429.22009382 46.35064531 427.03731631 47.05786133 424.85467529 C53.44280654 405.10521444 59.69137375 385.31143206 65.90820312 365.50848389 C66.27355667 364.34579987 66.63891022 363.18311584 67.01533508 361.98519897 C67.68987704 359.8376098 68.36332525 357.68967657 69.0353241 355.54129028 C71.57270247 347.46232783 74.24134062 339.43003635 76.9375 331.40301514 C75.74020767 331.6903653 74.54291534 331.97771545 73.30934143 332.27377319 C69.31497192 333.23242188 69.31497192 333.23242188 65.32060242 334.19107056 C64.33441925 334.42775452 63.34823608 334.66443848 62.33216858 334.90829468 C39.89361064 340.29354858 17.45505269 345.67880249 -4.98350525 351.0640564 C-5.98972962 351.30569204 -6.995954 351.54732769 -8.03267002 351.79628563 C-10.02609474 352.27442318 -12.01977628 352.75149138 -14.01372433 353.22744179 C-19.27844901 354.48564595 -24.5363102 355.7668358 -29.78787231 357.07897949 C-30.90357888 357.35468969 -32.01928545 357.63039989 -33.16880131 357.91446495 C-35.29351512 358.43992483 -37.4166366 358.97188608 -39.53773403 359.5117588 C-50.50077879 362.20697109 -63.29111876 364.00866879 -73.83203125 358.85614014 C-85.45212978 351.28577822 -92.89586953 339.81259962 -100.625 328.59051514 C-102.04010039 326.54606141 -103.45546984 324.5017939 -104.87109375 322.45770264 C-105.92659424 320.93161377 -105.92659424 320.93161377 -107.00341797 319.37469482 C-110.04996307 314.97790245 -113.11713769 310.59569488 -116.1875 306.21551514 C-117.32162574 304.59703337 -118.45574032 302.97854378 -119.58984375 301.36004639 C-120.15300293 300.55647705 -120.71616211 299.75290771 -121.29638672 298.92498779 C-123.17990844 296.23535835 -125.06089289 293.54396745 -126.94140625 290.85223389 C-127.57868652 289.94046387 -128.2159668 289.02869385 -128.87255859 288.08929443 C-130.09344961 286.34242007 -131.31385385 284.59520536 -132.53369141 282.84759521 C-133.35812744 281.66846558 -133.35812744 281.66846558 -134.19921875 280.46551514 C-134.68092529 279.7758667 -135.16263184 279.08621826 -135.65893555 278.37567139 C-137.09396657 276.35879007 -138.57418287 274.38076999 -140.0625 272.40301514 C-146.24008475 290.73879851 -152.20351691 309.1304107 -158 327.59051514 C-158.38692017 328.8224057 -158.77384033 330.05429626 -159.17248535 331.32351685 C-159.56319214 332.56751251 -159.95389893 333.81150818 -160.35644531 335.09320068 C-160.74500702 336.33017197 -161.13356873 337.56714325 -161.53390503 338.84159851 C-162.30419167 341.29385752 -163.07415584 343.74621785 -163.84378052 346.19868469 C-166.03355074 353.16668858 -168.25769456 360.12216981 -170.51953125 367.06707764 C-171.23368911 369.27804066 -171.94657162 371.48940891 -172.65872192 373.70101929 C-173.09019445 375.03052184 -173.52684069 376.35835786 -173.96896362 377.68435669 C-174.55996151 379.45740774 -175.13219148 381.23668311 -175.703125 383.01629639 C-176.01797852 383.97318359 -176.33283203 384.9300708 -176.65722656 385.91595459 C-177.14347375 388.89993053 -176.7360995 389.9298252 -175.0625 392.40301514 C-173.15730552 394.50997 -171.22863591 396.55535501 -169.25 398.59051514 C-140.77962698 428.60780101 -116.5381957 467.87501178 -117.0625 510.40301514 C-117.60660772 528.47114375 -125.07600971 545.08469259 -137.0625 558.40301514 C-137.62324219 559.06043701 -138.18398438 559.71785889 -138.76171875 560.39520264 C-156.55583192 579.84770922 -184.66712492 588.92627282 -210.3046875 590.27410889 C-211.54476562 590.31664795 -212.78484375 590.35918701 -214.0625 590.40301514 C-214.74731445 590.43024658 -215.43212891 590.45747803 -216.13769531 590.48553467 C-236.29414252 591.20250896 -255.74354075 588.62366716 -274.84619141 582.14520264 C-276.91268342 581.45318504 -278.9867771 580.80971582 -281.07421875 580.18426514 C-290.63556454 577.22694188 -299.27953225 573.12559408 -308.0625 568.40301514 C-309.80660156 567.47682373 -309.80660156 567.47682373 -311.5859375 566.53192139 C-325.0277546 559.13430808 -337.44506688 550.3881253 -348.55078125 539.79754639 C-350.60378787 537.84032546 -352.68280615 536.01088803 -354.875 534.21551514 C-358.6998149 530.96854997 -361.83427277 527.23022984 -365.0625 523.40301514 C-366.3 521.99729248 -366.3 521.99729248 -367.5625 520.56317139 C-378.85211625 507.66424499 -388.14641006 493.59158391 -396.0625 478.40301514 C-396.70421143 477.18460937 -396.70421143 477.18460937 -397.35888672 475.94158936 C-411.47853697 448.81579385 -419.64564936 419.84695379 -424.3125 389.71551514 C-424.4760498 388.67177734 -424.63959961 387.62803955 -424.80810547 386.55267334 C-437.31068827 300.16209453 -416.37293611 207.0953467 -365.33203125 135.99237061 C-362.46551496 132.21748792 -359.44268434 128.59009536 -356.36816406 124.98406982 C-354.30689092 122.48803301 -352.45849044 119.83819181 -350.5625 117.21551514 C-345.10805041 110.04375923 -338.7174216 103.84432668 -332.28125 97.55657959 C-328.49953922 93.8612512 -324.79712222 90.18113095 -321.359375 86.16082764 C-318.32429482 82.62100571 -315.07741103 79.57272973 -311.5 76.59051514 C-310.89994141 76.08407471 -310.29988281 75.57763428 -309.68164062 75.05584717 C-303.26695249 69.67627164 -296.72378927 64.47314624 -290.0625 59.40301514 C-289.06992187 58.63989014 -288.07734375 57.87676514 -287.0546875 57.09051514 C-260.54745699 37.42600328 -230.99798205 22.67774657 -200.0625 11.40301514 C-199.2998584 11.12264404 -198.5372168 10.84227295 -197.75146484 10.55340576 C-192.56955591 8.6707656 -187.34489989 6.98074127 -182.0625 5.40301514 C-181.14210937 5.12747803 -180.22171875 4.85194092 -179.2734375 4.5680542 C-164.77377112 0.32321062 -150.21620542 -2.61773374 -135.3125 -4.97198486 C-134.5138855 -5.09936035 -133.715271 -5.22673584 -132.89245605 -5.35797119 C-88.52381826 -12.35548698 -43.72052845 -9.21016857 0 0 Z " fill="#F29F21" transform="translate(427.0625,8.59698486328125)"/>
<path d="M0 0 C1.38812422 -0.01155685 2.77620273 -0.03206722 4.1640625 -0.06152344 C13.49596662 -0.25813488 21.42980012 0.5842206 30.08203125 4.29516602 C30.75024902 4.5160791 31.4184668 4.73699219 32.10693359 4.96459961 C38.41537205 7.55245107 40.82660238 14.34699322 43.70391846 20.10171509 C45.07112918 22.83576218 46.4804453 25.54735214 47.88729858 28.26115417 C48.60094059 29.63893543 49.31238552 31.01785689 50.02163696 32.39790344 C53.10315686 38.38621048 56.36184817 44.26252959 59.70703125 50.10766602 C60.76310727 51.95917921 61.81909671 53.8107418 62.875 55.66235352 C63.39884277 56.57984375 63.92268555 57.49733398 64.46240234 58.44262695 C66.75038938 62.47229842 69.00293501 66.52142508 71.25756836 70.56982422 C77.02419542 80.92130732 82.90618917 91.19573266 88.90209961 101.41601562 C92.8609604 108.1731429 96.7440548 114.9687303 100.58203125 121.79516602 C109.02647109 136.79669098 117.66552013 151.68013302 126.59057617 166.40112305 C134.47173093 179.41301779 141.88039124 192.63738968 149.17106628 205.98442078 C152.45284608 211.98697977 155.79385587 217.95582156 159.14453125 223.92016602 C164.61404905 233.66446814 170.04934607 243.42728858 175.47021484 253.19873047 C179.13177377 259.79533345 182.80911089 266.38272725 186.50317383 272.96118164 C199.52766758 296.16224251 212.01273769 319.58552094 224.08203125 343.29516602 C224.40361206 343.9263031 224.72519287 344.55744019 225.05651855 345.20770264 C232.93771468 360.68275429 240.49443054 376.28097096 247.74609375 392.06079102 C250.02633954 397.02184803 252.3338298 401.96863596 254.66796875 406.90454102 C264.11678717 426.89965746 273.17493324 447.05320711 282.08203125 467.29516602 C282.18676553 456.57735788 282.02375422 445.96596938 281.28439331 435.26882935 C281.03803191 431.68220947 280.815179 428.09409545 280.58984375 424.50610352 C280.54478195 423.79388138 280.49972015 423.08165924 280.45329285 422.34785461 C279.80435396 412.00226402 279.41576999 401.65494563 279.08203125 391.29516602 C279.0198428 389.39620512 279.0198428 389.39620512 278.95639801 387.45888138 C277.84205987 352.50096423 277.90088496 317.53304752 277.88184261 282.56164885 C277.8790398 277.45861558 277.8747973 272.35558408 277.87033844 267.25255203 C277.85820685 253.04683491 277.84788185 238.84111914 277.84446335 224.63539696 C277.84424378 223.73600231 277.84402422 222.83660767 277.843798 221.90995864 C277.84357972 221.00888242 277.84336144 220.1078062 277.84313655 219.17942464 C277.84269313 217.35456109 277.84224657 215.52969754 277.84179688 213.70483398 C277.84157545 212.79971021 277.84135402 211.89458643 277.84112588 210.96203466 C277.83715742 196.21887791 277.8196142 181.47576992 277.79643735 166.73263209 C277.77268572 151.49865609 277.76026052 136.26470466 277.75909543 121.03070986 C277.75818317 112.51519039 277.75254066 103.99973541 277.73427582 95.48423386 C277.71882613 88.25835179 277.71378467 81.03255438 277.72201392 73.80665891 C277.72589723 70.1304872 277.72510399 66.45448587 277.71095657 62.77833557 C277.56026725 21.2075042 277.56026725 21.2075042 286.08203125 9.29516602 C296.30385552 1.45659727 307.20411438 -0.02628778 319.6796875 0.09985352 C321.11096985 0.10287476 321.11096985 0.10287476 322.57116699 0.10595703 C324.64986439 0.11207401 326.72855199 0.12324514 328.80719852 0.13902092 C334.39882932 0.18117559 339.99054633 0.20760947 345.58226013 0.2361145 C347.24403833 0.24468397 347.24403833 0.24468397 348.9393878 0.25342655 C351.65360192 0.26741279 354.36781639 0.281324 357.08203125 0.29516602 C357.06392305 1.19714439 357.06392305 1.19714439 357.04544902 2.11734455 C356.32238435 38.39198617 355.92081351 74.65141155 355.88142264 110.93381548 C355.87404453 116.86855294 355.86227046 122.80328158 355.85070461 128.73801203 C355.8272974 140.82163523 355.80793113 152.90526139 355.79110527 164.98889542 C355.77450062 176.90355966 355.75595393 188.81821845 355.734972 200.73287582 C355.73365439 201.48167523 355.73233679 202.23047463 355.73097925 203.00196492 C355.72427452 206.80678975 355.71753662 210.61161453 355.71078599 214.41643928 C355.66338519 241.16604857 355.62009981 267.91566303 355.5793457 294.6652832 C355.53981473 320.6057167 355.49835046 346.54614596 355.4543457 372.48657227 C355.45298317 373.29021611 355.45162064 374.09385995 355.45021683 374.92185664 C355.43652808 382.99448491 355.42280086 391.06711312 355.40904548 399.13974127 C355.38104049 415.57557218 355.35329182 432.01140351 355.32569885 448.44723511 C355.32443065 449.20245278 355.32316245 449.95767044 355.32185583 450.73577349 C355.23760955 500.92223076 355.1593518 551.10869765 355.08203125 601.29516602 C352.54687778 602.74781178 350.00879064 604.19486025 347.46875 605.63891602 C346.40182922 606.25138184 346.40182922 606.25138184 345.31335449 606.8762207 C325.44407356 618.1421315 301.41488004 617.53831706 279.5546875 612.47875977 C273.96959864 609.87745329 271.70088829 603.35756474 269.01953125 598.17016602 C268.36823221 596.94914698 267.71462882 595.72935458 267.05883789 594.51074219 C265.71162331 592.00340391 264.37385451 589.49138316 263.04296875 586.9753418 C260.12215352 581.4711295 257.07212526 576.03958292 254.01953125 570.60766602 C253.15992798 569.07118408 253.15992798 569.07118408 252.28295898 567.50366211 C247.72843368 559.38352826 243.04531656 551.34254737 238.33178711 543.31396484 C234.15914306 536.18955502 230.09714672 529.00938033 226.08203125 521.79516602 C220.39764868 511.5867214 214.55908839 501.47778119 208.65234375 491.39672852 C199.65707257 476.04367318 190.79489887 460.61391596 182.06176758 445.11035156 C178.48016718 438.75544335 174.86747703 432.41896278 171.23925781 426.09057617 C159.78311052 406.10817022 148.58255678 385.99092327 137.64379883 365.7199707 C134.49564402 359.88929831 131.31310698 354.08026769 128.08203125 348.29516602 C122.49225699 338.278199 117.02482641 328.19596907 111.59130859 318.09350586 C110.29120421 315.68299204 108.97992095 313.27912578 107.6640625 310.87719727 C94.85958325 287.28391163 83.90359628 262.625859 73.10217285 238.06732178 C67.28990416 224.86263468 61.18110742 211.81548959 54.97094727 198.79394531 C49.23831226 186.76935775 43.60201846 174.70268017 38.01953125 162.60766602 C37.62372864 161.75175873 37.22792603 160.89585144 36.82012939 160.01400757 C35.70633708 157.6046799 34.59487772 155.19429264 33.484375 152.78344727 C33.15299026 152.06657745 32.82160553 151.34970764 32.48017883 150.6111145 C31.21714855 147.86149316 30.03978759 145.16843503 29.08203125 142.29516602 C28.95306043 155.01350871 29.29766728 167.67686269 29.84497106 180.38284981 C30.08586302 186.00934679 30.31088506 191.6364765 30.53555298 197.26364136 C30.58205598 198.42759471 30.62855899 199.59154807 30.67647117 200.79077274 C31.51866767 222.12129423 32.12020834 243.45971605 32.6875 264.79907227 C32.72003868 266.01707622 32.75257736 267.23508017 32.78610206 268.48999333 C34.29089017 325.22154101 34.51558723 381.93389203 34.41119659 438.68233931 C34.39316127 449.14975309 34.39432738 459.61710333 34.39977485 470.08452791 C34.40548162 481.65937234 34.39984146 493.23418333 34.3886013 504.8090229 C34.3840271 509.63420814 34.38304868 514.45937247 34.38518715 519.28455925 C34.38708446 524.90441301 34.3788571 530.52416791 34.36312675 536.1439991 C34.35893938 538.17838252 34.3579951 540.21277609 34.36081696 542.24716187 C34.37277122 552.41168809 34.13291116 562.48563131 33.21330261 572.61305237 C33.13903307 573.45509214 33.06476353 574.29713192 32.9882434 575.16468805 C31.8722613 586.20608933 29.24904098 598.8990325 20.58203125 606.48266602 C7.09616634 613.46641749 -9.01431516 612.44609033 -23.78987312 612.37309742 C-28.16253692 612.35312275 -32.5352122 612.33891525 -36.90789795 612.32469177 C-38.20981362 612.32040704 -38.20981362 612.32040704 -39.53803062 612.31603575 C-41.66467654 612.30904204 -43.79132263 612.30209893 -45.91796875 612.29516602 C-45.97281798 592.34216903 -45.93496888 572.39253563 -45.71130371 552.44059753 C-45.70078317 551.49932016 -45.69026262 550.55804279 -45.67942327 549.58824187 C-45.63524833 545.66164262 -45.59051278 541.73505021 -45.54516038 537.80846439 C-44.89254427 481.25897357 -44.66859927 424.71128294 -44.57421875 368.15844727 C-44.57224385 366.97818182 -44.57026895 365.79791637 -44.56823421 364.58188531 C-44.52908499 340.94106846 -44.49581495 317.30024431 -44.47315216 293.65940571 C-44.46818849 288.57388106 -44.46314298 283.48835651 -44.45800781 278.40283203 C-44.45610181 276.50842086 -44.45610181 276.50842086 -44.45415729 274.57573875 C-44.43253033 253.85641585 -44.3831633 233.13724524 -44.32376367 212.41799996 C-44.26271067 190.94116686 -44.22798644 169.46441387 -44.21867895 147.98749512 C-44.21278927 136.00714743 -44.19521906 124.02706821 -44.14729309 112.04680824 C-44.10680895 101.92389707 -44.08977581 91.80129962 -44.10394591 81.67831097 C-44.1104178 76.52599013 -44.10552357 71.37433963 -44.07007217 66.22212219 C-44.03789249 61.50854136 -44.03805644 56.7961054 -44.06388921 52.08249571 C-44.06753846 50.38006911 -44.05937557 48.6775669 -44.03810769 46.97526924 C-43.88742355 35.01096281 -43.88742355 35.01096281 -50.12358046 25.05022591 C-50.71572859 24.47105615 -51.30787673 23.89188638 -51.91796875 23.29516602 C-54.91816315 19.71136621 -55.25905974 17.75528986 -55.10546875 13.04516602 C-55.06486328 11.42868164 -55.06486328 11.42868164 -55.0234375 9.77954102 C-54.98863281 8.95969727 -54.95382812 8.13985352 -54.91796875 7.29516602 C-48.84439487 4.76686433 -43.17784363 3.50892003 -36.66796875 2.67016602 C-35.37052734 2.4884082 -35.37052734 2.4884082 -34.046875 2.30297852 C-22.71743321 0.76337934 -11.43158705 0.06593076 0 0 Z " fill="#2C2C2C" transform="translate(1604.91796875,520.704833984375)"/>
<path d="M0 0 C1.01803711 -0.02602295 2.03607422 -0.0520459 3.08496094 -0.07885742 C12.09229549 -0.10016352 19.10857301 2.11894308 25.75 8.375 C26.97386517 11.04190921 27.92772259 13.48783509 28.80859375 16.26220703 C29.07398453 17.05203854 29.33937531 17.84187004 29.61280823 18.65563583 C30.48655316 21.26815281 31.33689183 23.88768038 32.1875 26.5078125 C32.80119444 28.35712998 33.41645639 30.20592795 34.03320312 32.05422974 C35.31572038 35.90580993 36.58903108 39.76025266 37.85498047 43.61730957 C39.6430282 49.0606126 41.4588847 54.49422315 43.28515625 59.92480469 C46.49834695 69.48539238 49.68922991 79.0532922 52.875 88.62304688 C54.02402234 92.07267867 55.17521349 95.52158498 56.32640409 98.97049367 C62.09574109 116.25976397 67.82524319 133.56077111 73.44659328 150.89876652 C80.52781084 172.72743802 87.75345341 194.50641214 95.02614784 216.2719059 C96.65578409 221.15050648 98.28330077 226.02981409 99.91101074 230.90905762 C104.02217588 243.23164992 108.13592515 255.5533789 112.25 267.875 C116.69838659 281.19788208 121.14624792 294.52093841 125.5911355 307.84498835 C127.1933838 312.64766464 128.79623351 317.45013808 130.40074158 322.25205994 C137.72034808 344.15840667 144.96930291 366.08571452 152.09229279 388.05687714 C156.36828365 401.24293018 160.75561986 414.38657722 165.25 427.5 C165.88699551 429.36579095 166.52371094 431.23167755 167.16015625 433.09765625 C169.84075882 440.95219384 172.52306123 448.80614841 175.22036743 456.65496826 C184.43806563 483.47780826 193.43633036 510.36914888 202.31323242 537.30664062 C204.10940477 542.75696234 205.9102067 548.20574276 207.71213055 553.65416527 C209.12366843 557.92416964 210.53256019 562.19504355 211.94068336 566.46617508 C212.6043883 568.4781225 213.26895525 570.4897858 213.93445396 572.50114059 C223.72587259 602.10600644 223.72587259 602.10600644 221.75 607.375 C216.7562287 612.11908273 209.29035227 612.30837246 202.75 613.375 C201.5021875 613.58382812 200.254375 613.79265625 198.96875 614.0078125 C189.80967453 615.30840122 180.68393883 615.63656537 171.4375 615.75 C170.26936768 615.77602295 169.10123535 615.8020459 167.89770508 615.82885742 C157.93382019 615.84931425 148.4485391 614.04305447 140.3125 607.9375 C139.55066406 607.38191406 138.78882812 606.82632813 138.00390625 606.25390625 C133.37768961 602.39738943 130.30049389 599.29243772 128.375 593.5078125 C127.95822998 592.26668701 127.54145996 591.02556152 127.11206055 589.74682617 C126.65707798 588.33152647 126.20310383 586.91590229 125.75 585.5 C125.24721178 583.96523097 124.74436059 582.43048256 124.24145508 580.89575195 C117.70020518 560.71456182 111.84655885 540.30297228 105.92773438 519.93212891 C98.62276862 494.91641124 90.68278876 470.23107145 82.75 445.375 C20.05 445.045 -42.65 444.715 -107.25 444.375 C-108.24 448.005 -109.23 451.635 -110.25 455.375 C-111.45567459 459.04378677 -112.68544377 462.69200541 -113.9609375 466.3359375 C-114.32131607 467.37527435 -114.68169464 468.41461121 -115.05299377 469.48544312 C-115.83247828 471.73217981 -116.6136023 473.97834823 -117.39620972 476.22399902 C-118.65090336 479.82432942 -119.90134998 483.42610974 -121.15063477 487.02832031 C-122.47529264 490.84785223 -123.80003516 494.66735287 -125.126297 498.48632812 C-129.49385205 511.06436603 -133.8317405 523.65255505 -138.16304398 536.24311543 C-139.50760995 540.15114157 -140.85409558 544.05849912 -142.20234299 547.96525669 C-146.20339706 559.55922621 -150.19430716 571.15518475 -154.06640625 582.79296875 C-154.8805382 585.22522278 -155.69536723 587.65724237 -156.51028442 590.0892334 C-157.22120314 592.22594904 -157.9175726 594.36700454 -158.61303711 596.50878906 C-163.18884637 610.17336476 -163.18884637 610.17336476 -169.08740234 613.37109375 C-175.77403057 616.05251008 -182.77357423 615.86907398 -189.875 615.8125 C-191.81656982 615.80549072 -191.81656982 615.80549072 -193.79736328 615.79833984 C-210.88292843 615.60749168 -228.77672649 613.95779038 -245.25 609.375 C-245.70159441 589.72454045 -237.16367341 570.44404561 -230.86724472 552.09818649 C-229.77841046 548.9210474 -228.69655997 545.74154686 -227.61448002 542.56210232 C-219.71271335 519.35034598 -211.62770625 496.20596283 -203.36778259 473.1191864 C-199.55999971 462.46636346 -195.82172552 451.78922985 -192.07730103 441.11401367 C-183.04153503 415.36241313 -173.85813651 389.6652754 -164.625 363.98388672 C-161.05548197 354.05377965 -157.49650513 344.11989333 -153.93667603 334.18630981 C-151.96200637 328.67617656 -149.98690113 323.16619947 -148.01171875 317.65625 C-147.6204631 316.56478165 -147.22920746 315.47331329 -146.82609558 314.34877014 C-144.01709401 306.51321773 -141.20608563 298.67838672 -138.39453125 290.84375 C-122.98438755 247.89803611 -107.69670529 204.9111052 -92.58242798 161.86030579 C-90.56493249 156.11454668 -88.54384711 150.37009235 -86.51579285 144.62805176 C-79.24515007 124.03935613 -72.15142831 103.39121289 -65.12758636 82.7171936 C-64.45335461 80.73413184 -63.77781047 78.75152209 -63.10186768 76.76904297 C-57.946775 61.64280454 -52.95676027 46.47996809 -48.28300476 31.19831848 C-47.60781474 28.99081785 -46.92833048 26.78462496 -46.24404907 24.57992554 C-45.56670261 22.39608468 -44.901129 20.20856564 -44.24594116 18.01797485 C-43.91494415 16.95283661 -43.58394714 15.88769836 -43.24291992 14.7902832 C-42.95519211 13.84345169 -42.66746429 12.89662018 -42.37101746 11.9210968 C-41.0916202 9.01528187 -39.66287361 7.41708529 -37.25 5.375 C-33.37080043 3.89438948 -29.31636816 3.18827363 -25.25 2.375 C-23.84814453 2.06369141 -23.84814453 2.06369141 -22.41796875 1.74609375 C-14.97719187 0.321688 -7.56007401 0.10726357 0 0 Z M-11.25 128.375 C-11.49008789 129.23449753 -11.73017578 130.09399506 -11.97753906 130.97953796 C-28.03820395 188.44896527 -44.67570251 245.6304107 -63.13916016 302.37915039 C-68.54501248 318.99541504 -73.91469763 335.62081919 -79.1401062 352.29501343 C-79.79132048 354.37283351 -80.4440659 356.45017439 -81.09841919 358.52700806 C-81.98428304 361.34080802 -82.86433951 364.15634682 -83.7421875 366.97265625 C-84.12948784 368.20021637 -84.12948784 368.20021637 -84.52461243 369.45257568 C-85.47621436 372.52842625 -86.25 375.13529201 -86.25 378.375 C-37.08 378.375 12.09 378.375 62.75 378.375 C61.10623281 370.06024264 61.10623281 370.06024264 58.89453125 362.0078125 C58.52763184 360.8206665 58.16073242 359.63352051 57.78271484 358.41040039 C57.58554871 357.77893097 57.38838257 357.14746155 57.1852417 356.49685669 C53.75733477 345.50507809 50.46735512 334.47666307 47.31640625 323.40234375 C46.87023705 321.83510559 46.87023705 321.83510559 46.41505432 320.23620605 C46.11268356 319.17389771 45.81031281 318.11158936 45.4987793 317.01708984 C39.90286358 297.3578679 34.068424 277.81460508 27.75 258.375 C17.89966549 228.02095411 9.00554642 197.40508471 0.76953125 166.57421875 C0.2836554 164.75688232 0.2836554 164.75688232 -0.21203613 162.90283203 C-1.77630201 157.04142534 -3.32793522 151.17707138 -4.85986328 145.30712891 C-5.41303085 143.21124848 -5.96625059 141.11538182 -6.51953125 139.01953125 C-6.89189156 137.56893562 -6.89189156 137.56893562 -7.27177429 136.08903503 C-7.5041127 135.21378677 -7.73645111 134.33853851 -7.97583008 133.43676758 C-8.17485428 132.67205643 -8.37387848 131.90734528 -8.57893372 131.11946106 C-9.10517783 129.16648391 -9.10517783 129.16648391 -11.25 128.375 Z " fill="#2B2B2B" transform="translate(2260.25,518.625)"/>
<path d="M0 0 C0.6511377 0.30019043 1.30227539 0.60038086 1.97314453 0.90966797 C39.67861836 18.49007952 64.74974219 48.37773423 79 87 C83.8494695 100.6876208 86.92847298 114.64172832 89 129 C89.11859375 129.82000488 89.2371875 130.64000977 89.359375 131.48486328 C94.80524174 171.73727415 93.40156777 218.80676961 76 256 C75.70367676 256.63663574 75.40735352 257.27327148 75.10205078 257.92919922 C60.1599142 289.72674752 38.71658273 315.48970853 8 333 C7.01644531 333.57234375 6.03289062 334.1446875 5.01953125 334.734375 C-12.12329965 344.01918776 -31.89122499 349.4915036 -51 353 C-52.55460937 353.28810547 -52.55460937 353.28810547 -54.140625 353.58203125 C-68.42206431 355.66961869 -86.28613231 354.21501042 -98.15625 345.3984375 C-106.08594694 338.03994755 -108.95895338 328.37932664 -109.4375 317.8125 C-109.36424815 313.66330617 -109.2528763 312.36125186 -106.8125 308.875 C-101.19748503 305.13165668 -96.31692078 304.65102527 -89.75 304.1875 C-70.37974663 302.49644613 -52.59979798 296.19351271 -38 283 C-37.31550781 282.39671875 -36.63101563 281.7934375 -35.92578125 281.171875 C-25.47857825 271.40199558 -18.86027383 258.85264601 -13 246 C-12.4534375 244.80761719 -11.906875 243.61523438 -11.34375 242.38671875 C5.80857262 202.35004733 7.2117323 147.79611454 -8.44750977 106.95532227 C-17.38018807 84.92935401 -31.324333 67.89757973 -53.11328125 57.56640625 C-57.39359438 55.75827605 -61.77142602 54.4119842 -66.25 53.1875 C-66.95068604 52.9925293 -67.65137207 52.79755859 -68.37329102 52.59667969 C-82.24672579 49.11257493 -96.65132748 48.68385182 -110.87915039 48.79418945 C-113.32904398 48.81262449 -115.77855923 48.81469668 -118.22851562 48.81445312 C-119.83594067 48.81936568 -121.44336324 48.82519285 -123.05078125 48.83203125 C-123.75842117 48.83314407 -124.4660611 48.8342569 -125.19514465 48.83540344 C-129.74691761 48.87678765 -134.2542068 49.15018053 -138.79240417 49.50907898 C-139.95675082 49.6005807 -141.12109747 49.69208242 -142.32072735 49.78635693 C-143.20488732 49.85685914 -144.0890473 49.92736135 -145 50 C-144.99788403 50.85822229 -144.99576806 51.71644459 -144.99358797 52.60067362 C-144.86696522 103.97036691 -144.74161442 155.34006319 -144.61781773 206.70976337 C-144.60280533 212.93875178 -144.58778277 219.16774015 -144.57275391 225.39672852 C-144.56976329 226.63631445 -144.56677268 227.87590039 -144.56369144 229.15304954 C-144.51584439 248.97532344 -144.46718213 268.79759525 -144.41819459 288.61986636 C-144.36759026 309.10406747 -144.31791745 329.58827069 -144.26903296 350.07247597 C-144.24169628 361.51708861 -144.21397562 372.96170001 -144.18519592 384.40630913 C-144.17425551 388.77660489 -144.1633544 393.14690076 -144.15246582 397.51719666 C-144.14978181 398.58962392 -144.14709781 399.66205119 -144.14433247 400.76697626 C-144.11543006 412.37685362 -144.08917886 423.98672659 -144.07053375 435.59662533 C-144.06887245 436.61792907 -144.06721116 437.63923281 -144.06549951 438.69148516 C-144.05191042 447.06710863 -144.05191042 447.06710863 -144.04580539 451.0372139 C-144.02532894 464.05618707 -143.98643087 477.07492936 -143.92664775 490.09378294 C-143.88534039 499.16072854 -143.85412728 508.22767371 -143.8298811 517.29468079 C-143.81496442 522.66615737 -143.79473591 528.03749027 -143.76110744 533.40888488 C-143.72999714 538.38239392 -143.71305256 543.35575335 -143.70672262 548.32935373 C-143.70189138 550.14124275 -143.69190648 551.95312715 -143.67615855 553.76495416 C-143.55686241 567.97741072 -144.11272779 582.13733907 -153 594 C-161.92860289 602.66753263 -174.18095005 602.30277653 -185.88671875 602.1953125 C-187.06974075 602.1924826 -188.25276276 602.18965271 -189.47163391 602.18673706 C-193.21036355 602.175638 -196.94884408 602.15055275 -200.6875 602.125 C-203.23892881 602.11495692 -205.79036141 602.1058334 -208.34179688 602.09765625 C-214.56128137 602.07573241 -220.78062288 602.04235867 -227 602 C-227.06337844 578.03648807 -226.99235353 554.07599308 -226.78125 530.11328125 C-226.77026276 528.86504452 -226.75927551 527.61680779 -226.74795532 526.3307457 C-226.67948931 518.6245917 -226.60844424 510.91846296 -226.53643799 503.21234131 C-226.43959902 492.84797667 -226.34451919 482.48359787 -226.25218201 472.11919212 C-226.22018171 468.58394988 -226.18641109 465.04872804 -226.15246582 461.51350403 C-226.0455092 449.93212559 -225.98205013 438.35146908 -225.98278809 426.76957703 C-225.98280591 426.09667373 -225.98282373 425.42377044 -225.98284209 424.73047614 C-225.98565041 406.44090029 -226.07876437 388.15169884 -226.16908598 369.86238742 C-226.19419069 364.74361356 -226.21838816 359.62483539 -226.2427063 354.50605774 C-226.28476937 345.67721821 -226.32738328 336.84838148 -226.37039185 328.01954651 C-226.43257107 315.25517282 -226.49388765 302.4907951 -226.55500638 289.72641629 C-226.65423586 269.00754936 -226.75414481 248.28868576 -226.85449219 227.56982422 C-226.95185935 207.46598481 -227.0488996 187.36214386 -227.14550781 167.25830078 C-227.1514818 166.01515679 -227.15745579 164.77201279 -227.16361082 163.49119776 C-227.19358424 157.25353224 -227.22355132 151.01586668 -227.25351524 144.7782011 C-227.50135988 93.18546264 -227.75031192 41.59272957 -228 -10 C-226.6004747 -10.64689596 -225.19813306 -11.28770054 -223.79467773 -11.92602539 C-223.01406479 -12.28354385 -222.23345184 -12.64106232 -221.42918396 -13.00941467 C-213.24015788 -16.34877851 -204.15693022 -16.53666526 -195.4375 -17.0625 C-194.45216782 -17.12361969 -194.45216782 -17.12361969 -193.44692993 -17.18597412 C-55.49725597 -25.6383464 -55.49725597 -25.6383464 0 0 Z " fill="#2C2C2C" transform="translate(1030,531)"/>
<path d="M0 0 C2.2093759 0.00084815 4.41875264 0.00036747 6.62812805 -0.00132751 C12.57328853 -0.00218156 18.51826415 0.01534772 24.46338201 0.03639436 C30.69599145 0.0552605 36.92860603 0.05691938 43.16123962 0.06047058 C54.2722049 0.06923519 65.38309441 0.09085081 76.49402522 0.11939874 C86.57543976 0.14516278 96.65684078 0.16385918 106.73828125 0.17578125 C107.40290196 0.17656942 108.06752267 0.17735759 108.7522834 0.17816965 C112.08711447 0.18208529 115.42194566 0.18586949 118.75677693 0.18960536 C146.34042071 0.22088859 173.92398979 0.27359219 201.50756836 0.34057617 C201.52161318 2.54555435 201.53154653 4.75055892 201.53979492 6.95556641 C201.54876801 8.79742775 201.54876801 8.79742775 201.55792236 10.67649841 C201.48514304 15.97238542 200.94506944 21.15606103 200.25756836 26.40307617 C200.12261963 27.43948242 199.9876709 28.47588867 199.84863281 29.54370117 C198.14633829 41.84265852 196.00799947 53.26826313 185.90209961 61.44995117 C172.58936029 68.86464142 152.18783284 66.64070128 137.28100586 66.91870117 C136.2716844 66.9389781 135.26236294 66.95925503 134.22245598 66.98014641 C109.67167596 67.46847027 85.12475533 67.45184288 60.57006836 67.40307617 C38.26413086 67.37213867 38.26413086 67.37213867 15.50756836 67.34057617 C15.50756836 128.72057617 15.50756836 190.10057617 15.50756836 253.34057617 C71.93756836 253.34057617 128.36756836 253.34057617 186.50756836 253.34057617 C179.63546805 306.02667858 179.63546805 306.02667858 167.50756836 316.34057617 C161.96643918 319.72682178 155.96690042 320.46654867 149.59135437 320.46083069 C148.40895267 320.46220819 147.22655096 320.46358568 146.0083189 320.46500492 C144.7147387 320.46140681 143.4211585 320.4578087 142.08837891 320.45410156 C140.68604695 320.45379507 139.28371483 320.45392898 137.88138294 320.45446682 C134.13158433 320.45469225 130.38181774 320.44890324 126.63202667 320.44185638 C123.11125082 320.43615458 119.5904827 320.43589289 116.06970215 320.43518066 C105.77815332 320.42993674 95.48661044 320.41597556 85.19506836 320.40307617 C62.19819336 320.38245117 39.20131836 320.36182617 15.50756836 320.34057617 C15.50756836 393.93057617 15.50756836 467.52057617 15.50756836 543.34057617 C36.197502 544.1928464 36.197502 544.1928464 56.8737793 544.4699707 C58.33106021 544.47133459 59.78834078 544.47311991 61.24562073 544.47528076 C65.11113849 544.47973658 68.97662879 544.47811636 72.84214687 544.47490168 C76.94149776 544.47231715 81.04084675 544.47473198 85.14019775 544.47628784 C92.01151947 544.47809134 98.88283033 544.47575076 105.75415039 544.47094727 C113.63691569 544.46549947 121.51965512 544.46727848 129.40241981 544.47277367 C136.24311279 544.47734681 143.0837981 544.47793526 149.92449212 544.475335 C153.97859383 544.47379623 158.03268348 544.47351115 162.08678436 544.47687149 C166.6108481 544.48015661 171.13487773 544.47807523 175.65893555 544.4699707 C176.36310215 544.46876732 177.06726874 544.46756394 177.79277372 544.46632409 C187.44286539 544.4418514 197.06460418 544.22117566 206.69660568 543.60165596 C208.63179569 543.48109862 210.56970541 543.40524166 212.50756836 543.34057617 C213.50756836 544.34057617 213.50756836 544.34057617 213.52709961 547.19995117 C212.42709346 567.87176477 209.90660281 591.09776108 193.89819336 605.72729492 C186.98856473 610.39016522 180.15695644 610.84878455 172.0612793 611.01757812 C170.93266354 611.0505943 169.80404778 611.08361048 168.64123154 611.11762714 C154.73216239 611.4838873 140.81751656 611.50535002 126.90453053 611.50783324 C124.60747106 611.50855777 122.31041713 611.51071769 120.01335907 611.51333046 C111.90725846 611.52251784 103.801174 611.52667462 95.69506836 611.52587891 C89.10585071 611.52534864 82.51669271 611.53235699 75.92749023 611.54638672 C30.72448668 611.64048568 -14.44500477 611.63515845 -59.49243164 607.34057617 C-60.17442909 604.67710213 -60.83931186 602.01120174 -61.49243164 599.34057617 C-61.69807562 598.51443742 -61.9037196 597.68829868 -62.11559522 596.83712542 C-68.11135003 571.54247711 -67.2138892 545.79652103 -67.15730274 519.96877086 C-67.14891021 513.86843482 -67.16422507 507.76819417 -67.17874814 501.6678773 C-67.20760142 489.21372091 -67.21369711 476.75965489 -67.20627785 464.30547142 C-67.1990209 451.99560038 -67.20221333 439.68580297 -67.21899986 427.37594032 C-67.22004251 426.60712496 -67.22108516 425.8383096 -67.2221594 425.04619681 C-67.22750904 421.14089142 -67.23304187 417.23558632 -67.23864516 413.33028129 C-67.27788172 385.75485407 -67.29423511 358.17945691 -67.296875 330.60400391 C-67.29949071 303.83478094 -67.31263104 277.06559648 -67.33984375 250.29638672 C-67.34068018 249.46950589 -67.3415166 248.64262506 -67.34237837 247.79068724 C-67.35079053 239.48590565 -67.35941476 231.18112429 -67.36819427 222.87634309 C-67.38607023 205.96242916 -67.40253184 189.04851395 -67.4181366 172.13459778 C-67.41885564 171.35712735 -67.41957467 170.57965691 -67.4203155 169.77862677 C-67.4680722 117.96595586 -67.4827682 66.15326655 -67.49243164 14.34057617 C-44.23726848 4.61452311 -25.32190579 -0.13768757 0 0 Z " fill="#2C2C2C" transform="translate(1259.492431640625,521.659423828125)"/>
<path d="M0 0 C7.14420004 0.73304877 13.59445118 2.63944988 20.37872314 4.9433136 C21.55049103 5.33153793 22.72225891 5.71976227 23.92953491 6.11975098 C27.07494038 7.1633819 30.21718428 8.21565965 33.35832977 9.27198792 C38.57460756 11.02248794 43.79880996 12.74935015 49.02138901 14.48093796 C50.9786218 15.13026161 52.93541354 15.78090215 54.8921814 16.43162537 C62.63457819 19.00288997 70.39363972 21.51143072 78.18341064 23.9355011 C79.07846313 24.21432632 79.97351563 24.49315155 80.89569092 24.78042603 C84.97024618 26.0465344 89.04809216 27.30097534 93.12969971 28.54414368 C94.54870341 28.98300114 95.96765251 29.42203524 97.38653564 29.86128235 C98.58842529 30.2273761 99.79031494 30.59346985 101.02862549 30.97065735 C105.9017561 32.80999054 105.9017561 32.80999054 108.05059814 35.11128235 C108.22737781 37.94195265 108.16876224 40.3217764 107.89077759 43.11462402 C107.82815306 43.91445904 107.76552853 44.71429406 107.70100629 45.5383665 C107.56722732 47.22535338 107.42452829 48.91165366 107.27349043 50.59718299 C107.06364307 52.96414294 106.88118355 55.33103146 106.71165848 57.70118141 C106.36774161 62.48870675 105.98884424 67.27312855 105.60772705 72.05781555 C105.46452045 73.87498347 105.3214637 75.6921632 105.17854309 77.50935364 C104.71480693 83.39386136 104.24638236 89.27799107 103.77716064 95.1620636 C103.69704097 96.16759395 103.6169213 97.17312431 103.53437376 98.20912528 C102.77770024 107.70415672 102.01933116 117.1990512 101.25663185 126.69360065 C100.28508377 138.7892709 99.32228839 150.88556828 98.37118399 162.98286372 C97.69901293 171.52324118 97.01701833 180.06279982 96.32768762 188.6018092 C95.91709587 193.69124573 95.51084747 198.78094208 95.1151619 203.87156105 C94.74387716 208.64557817 94.36046385 213.41846538 93.96764946 218.19075775 C93.82570501 219.94116164 93.68817706 221.6919301 93.5553875 223.44305229 C93.37352477 225.83245068 93.1758175 228.22002723 92.97409058 230.6078186 C92.925147 231.30080168 92.87620342 231.99378475 92.8257767 232.70776731 C92.37669063 237.72256509 91.08081049 241.26084937 87.32745361 244.68183899 C86.69726318 245.12390686 86.06707275 245.56597473 85.41778564 246.0214386 C84.70300049 246.52997375 83.98821533 247.03850891 83.25177002 247.56245422 C82.4841333 248.0941925 81.71649658 248.62593079 80.92559814 249.17378235 C80.1244458 249.74032532 79.32329346 250.30686829 78.49786377 250.89057922 C76.02140304 252.63947018 73.53644018 254.37576139 71.05059814 256.11128235 C68.90733839 257.62081294 66.76626898 259.13341015 64.62530518 260.64619446 C63.23393744 261.62873127 61.84167332 262.60999985 60.44854736 263.59004211 C55.28651411 267.22370866 50.16232685 270.90725863 45.05059814 274.61128235 C38.55001331 279.32168892 32.01195934 283.97425843 25.44512939 288.5917511 C20.28492944 292.22582907 15.16138148 295.90809507 10.05059814 299.61128235 C0.74084325 306.35476476 -8.64992522 312.97963172 -18.05389404 319.59077454 C-26.80704629 325.74679306 -35.51970249 331.95325997 -44.18572998 338.23139954 C-49.56204801 342.12159996 -54.96461491 345.97292839 -60.38690186 349.79878235 C-61.46101318 350.5567511 -61.46101318 350.5567511 -62.55682373 351.33003235 C-71.28929844 357.47918525 -71.28929844 357.47918525 -75.94940186 357.11128235 C-76.27940186 356.78128235 -76.60940186 356.45128235 -76.94940186 356.11128235 C-76.55976533 350.36885875 -74.77929924 345.99684167 -72.25799561 340.8730011 C-71.8812973 340.08775558 -71.504599 339.30251007 -71.1164856 338.49346924 C-69.88186361 335.92434321 -68.63430124 333.36172524 -67.38690186 330.79878235 C-66.51888341 328.99705381 -65.65195356 327.19480043 -64.78607178 325.39204407 C-63.02256487 321.72147831 -61.25528455 318.05276752 -59.48553467 314.38520813 C-56.19053157 307.54588137 -52.95609283 300.67851253 -49.73242188 293.80534363 C-48.75551279 291.72266144 -47.77723415 289.64062798 -46.79852295 287.55879211 C-45.49750513 284.79132002 -44.19687221 282.02366779 -42.89666748 279.2558136 C-39.93569628 272.95305802 -36.97150765 266.65181608 -34.00680542 260.35081482 C-33.34649608 258.94741695 -32.68623764 257.54399513 -32.02603149 256.14054871 C-28.14923574 247.89970045 -24.26645223 239.66171335 -20.37518311 231.4276886 C-19.99380692 230.62059448 -19.61243073 229.81350037 -19.21949768 228.98194885 C-17.04306015 224.37637326 -14.8653108 219.77142127 -12.68641663 215.16700745 C-11.71564905 213.11144652 -10.74981252 211.05362241 -9.78436279 208.99555969 C-8.57733253 206.42615864 -7.34491998 203.87148701 -6.09100342 201.32466125 C-5.53122803 200.16756653 -4.97145264 199.0104718 -4.39471436 197.8183136 C-3.89729736 196.80873596 -3.39988037 195.79915833 -2.88739014 194.75898743 C-1.86712656 191.87903987 -1.69394405 190.85791071 -2.94940186 188.11128235 C-4.35326497 186.26477613 -4.35326497 186.26477613 -6.15252686 184.5448761 C-6.80350342 183.89454407 -7.45447998 183.24421204 -8.12518311 182.57417297 C-8.80967529 181.90579407 -9.49416748 181.23741516 -10.19940186 180.54878235 C-11.20293701 179.54041321 -11.20293701 179.54041321 -12.22674561 178.51167297 C-15.58336699 175.19132156 -18.70691162 172.29008063 -22.94940186 170.11128235 C-23.30518311 171.3745636 -23.66096436 172.63784485 -24.02752686 173.93940735 C-26.56256385 182.36796423 -29.67704781 190.59848139 -32.69940186 198.86128235 C-33.39742613 200.77549805 -34.09542334 202.68972361 -34.793396 204.60395813 C-43.10962993 227.37964492 -51.5700726 250.10232637 -60.01791763 272.82942963 C-63.34119391 281.77071737 -66.6534992 290.7159897 -69.95330811 299.66596985 C-70.34070663 300.7163443 -70.72810516 301.76671875 -71.12724304 302.84892273 C-72.90646289 307.67376384 -74.68400949 312.49921109 -76.45892334 317.32563782 C-77.68553012 320.65962202 -78.92241648 323.98948016 -80.16815186 327.31636047 C-81.41275661 330.6415751 -82.6126247 333.97961252 -83.79315186 337.32807922 C-84.39680262 338.99037603 -85.00094989 340.65249265 -85.60565186 342.31440735 C-86.0004071 343.47308319 -86.0004071 343.47308319 -86.40313721 344.65516663 C-87.19354248 346.78804016 -87.19354248 346.78804016 -88.94940186 350.11128235 C-91.53338623 351.22358704 -91.53338623 351.22358704 -93.94940186 351.11128235 C-96.94244009 348.11824411 -96.87194804 344.4800267 -97.45477295 340.43916321 C-97.59207321 339.53354739 -97.72937347 338.62793158 -97.87083435 337.69487286 C-98.3294195 334.65642174 -98.77608532 331.61633757 -99.22283936 328.5761261 C-99.54558324 326.42150884 -99.86905417 324.26700038 -100.19320679 322.1125946 C-101.06574229 316.29909154 -101.9279704 310.48410265 -102.78808594 304.66875076 C-103.68022542 298.64708211 -104.58091712 292.62669299 -105.48065186 286.6061554 C-106.93987338 276.83420683 -108.39325089 267.06140466 -109.84295654 257.28804016 C-111.62737896 245.26027921 -113.42897851 233.23516098 -115.23720169 221.21095848 C-116.08260385 215.58476258 -116.9246402 209.95806266 -117.76608086 204.33127308 C-118.42008348 199.95800368 -119.07530789 195.58492724 -119.73376465 191.21232605 C-120.34506894 187.15099768 -120.95134006 183.08894946 -121.55366135 179.02627945 C-121.77200717 177.5591006 -121.99207986 176.09217747 -122.21406937 174.6255455 C-122.5147086 172.63753512 -122.80839386 170.64847684 -123.10174561 168.65937805 C-123.26666504 167.55568375 -123.43158447 166.45198944 -123.60150146 165.31484985 C-124.5670866 156.42346238 -124.5670866 156.42346238 -123.05413818 153.20942688 C-122.63414551 152.72586731 -122.21415283 152.24230774 -121.78143311 151.74409485 C-121.06999146 150.89440125 -121.06999146 150.89440125 -120.34417725 150.02754211 C-119.82202637 149.43642639 -119.29987549 148.84531067 -118.76190186 148.23628235 C-117.650466 146.91640041 -116.54116642 145.59471723 -115.43377686 144.2714386 C-114.85692139 143.58968567 -114.28006592 142.90793274 -113.68572998 142.20552063 C-110.84691891 138.78154406 -108.18694725 135.22611882 -105.51190186 131.67378235 C-100.67051914 125.29077086 -95.68621043 119.04390305 -90.61151123 112.84541321 C-86.07003038 107.28868898 -81.69003074 101.62566124 -77.33612061 95.92036438 C-69.07435123 85.14224624 -60.67688831 74.46671901 -52.27606201 63.79682922 C-49.9985398 60.90319408 -47.72416178 58.00708912 -45.44940186 55.11128235 C-44.53274956 53.94460439 -43.61608291 52.77793771 -42.69940186 51.61128235 C-42.24565186 51.03378235 -41.79190186 50.45628235 -41.32440186 49.86128235 C-37.19940186 44.61128235 -37.19940186 44.61128235 -35.82513428 42.86225891 C-34.90596873 41.69238219 -33.9868609 40.52246012 -33.06781006 39.35249329 C-30.81484092 36.48457078 -28.56096463 33.61737245 -26.30487061 30.75190735 C-25.41547336 29.6217575 -24.52615086 28.49154884 -23.63690186 27.36128235 C-23.19741211 26.80279602 -22.75792236 26.24430969 -22.30511475 25.66889954 C-19.59618299 22.22160664 -16.90124314 18.76381007 -14.21502686 15.29878235 C-13.26236938 14.07046692 -13.26236938 14.07046692 -12.29046631 12.81733704 C-11.04034514 11.2043809 -9.79144492 9.59047758 -8.54388428 7.97554016 C-7.97516602 7.24174133 -7.40644775 6.5079425 -6.82049561 5.75190735 C-6.31445801 5.09738586 -5.80842041 4.44286438 -5.28704834 3.76850891 C-2.35371187 0.13436254 -2.35371187 0.13436254 0 0 Z " fill="#2C2C2C" transform="translate(130.94940185546875,897.8887176513672)"/>
<path d="M0 0 C0.98484375 0.02707031 1.9696875 0.05414062 2.984375 0.08203125 C3.73203125 0.11683594 4.4796875 0.15164063 5.25 0.1875 C2.50289295 1.68812235 0.8247597 2.24615384 -2.375 2.6875 C-5.81422625 2.85449497 -5.81422625 2.85449497 -7.75 5.1875 C-8.74 5.1875 -9.73 5.1875 -10.75 5.1875 C-11.41 6.5075 -12.07 7.8275 -12.75 9.1875 C-13.41 8.8575 -14.07 8.5275 -14.75 8.1875 C-6.55597015 -0.23414179 -6.55597015 -0.23414179 0 0 Z " fill="#E7A039" transform="translate(117.75,813.8125)"/>
<path d="M0 0 C0.66 0 1.32 0 2 0 C2 0.66 2 1.32 2 2 C4.41645782 2.16687448 4.41645782 2.16687448 7 2 C7.66 1.34 8.32 0.68 9 0 C9.99 0 10.98 0 12 0 C12 0.66 12 1.32 12 2 C11.34 2 10.68 2 10 2 C10.66 3.32 11.32 4.64 12 6 C6.94744036 5.36843005 2.70406799 3.86540627 -2 2 C-1.34 1.34 -0.68 0.68 0 0 Z " fill="#EAA229" transform="translate(182,768)"/>
<path d="M0 0 C0.33 0.66 0.66 1.32 1 2 C0.2884375 2.61875 0.2884375 2.61875 -0.4375 3.25 C-2.21895421 5.24522872 -2.39651694 6.435197 -3 9 C-4.4375 11.75 -4.4375 11.75 -6 14 C-6.66 14 -7.32 14 -8 14 C-6.58465326 9.16423199 -4.6634683 5.24490261 -2 1 C-1.34 0.67 -0.68 0.34 0 0 Z " fill="#ECA02D" transform="translate(41,182)"/>
<path d="M0 0 C0.33 0 0.66 0 1 0 C1.36552803 1.41377782 1.71695495 2.83120576 2.0625 4.25 C2.25972656 5.03890625 2.45695312 5.8278125 2.66015625 6.640625 C3.01497267 9.10394822 2.76877544 10.65604132 2 13 C1.67 11.68 1.34 10.36 1 9 C0.34 9 -0.32 9 -1 9 C-0.67 6.03 -0.34 3.06 0 0 Z " fill="#E8A131" transform="translate(59,415)"/>
<path d="M0 0 C0.33 0.66 0.66 1.32 1 2 C1.99 2.33 2.98 2.66 4 3 C1.03 3.66 -1.94 4.32 -5 5 C-4.34 4.67 -3.68 4.34 -3 4 C-3 3.01 -3 2.02 -3 1 C-2.01 0.67 -1.02 0.34 0 0 Z " fill="#ED9F2F" transform="translate(457,745)"/>
<path d="M0 0 C0.66 0.33 1.32 0.66 2 1 C1.67 2.65 1.34 4.3 1 6 C-0.32 5.67 -1.64 5.34 -3 5 C-2.01 3.35 -1.02 1.7 0 0 Z " fill="#EBA12A" transform="translate(150,725)"/>
<path d="M0 0 C0.66 0 1.32 0 2 0 C2 0.66 2 1.32 2 2 C3.32 2 4.64 2 6 2 C6 2.66 6 3.32 6 4 C3.69 4 1.38 4 -1 4 C-0.67 2.68 -0.34 1.36 0 0 Z " fill="#F69B2C" transform="translate(430,308)"/>
</svg>
